<svg width="149" height="63" viewBox="0 0 149 63" fill="none" xmlns="http://www.w3.org/2000/svg">
<g clip-path="url(#clip0_365_10928)">
<path d="M55.7113 24.7017H51.8547V24.316C51.8547 23.8046 51.6515 23.3141 51.2899 22.9525C50.9283 22.5909 50.4378 22.3877 49.9264 22.3877H44.5271C44.0157 22.3877 43.5252 22.5909 43.1636 22.9525C42.802 23.3141 42.5988 23.8046 42.5988 24.316V24.7017H38.7422V27.0156H40.2848V38.5855C40.2848 39.1992 40.5286 39.7878 40.9626 40.2217C41.3965 40.6557 41.9851 40.8995 42.5988 40.8995H51.8547C52.4684 40.8995 53.057 40.6557 53.4909 40.2217C53.9249 39.7878 54.1687 39.1992 54.1687 38.5855V27.0156H55.7113V24.7017ZM51.8547 38.5855H42.5988V27.0156H51.8547V38.5855Z" fill="#737373"/>
<path d="M46.4551 29.3301H44.1411V36.272H46.4551V29.3301Z" fill="#737373"/>
<path d="M50.312 29.3301H47.998V36.272H50.312V29.3301Z" fill="#737373"/>
</g>
<g clip-path="url(#clip1_365_10928)">
<path d="M18.6009 23.2462C18.0503 22.6965 17.304 22.3877 16.5259 22.3877C15.7479 22.3877 15.0016 22.6965 14.451 23.2462L0.0219727 37.6753V41.8251H4.17185L18.6009 27.3961C19.1504 26.8454 19.4591 26.0992 19.4591 25.3212C19.4591 24.5432 19.1504 23.7969 18.6009 23.2462ZM3.5045 40.2054H1.64175V38.3426L12.4214 27.571L14.2842 29.4338L3.5045 40.2054ZM17.4557 26.2509L15.4253 28.2813L13.5666 26.4186L15.5962 24.3914C15.8432 24.1444 16.1782 24.0056 16.5276 24.0056C16.8769 24.0056 17.2119 24.1444 17.4589 24.3914C17.7059 24.6384 17.8447 24.9735 17.8447 25.3228C17.8447 25.6721 17.7059 26.0072 17.4589 26.2542L17.4557 26.2509Z" fill="#737373"/>
</g>
<g clip-path="url(#clip2_365_10928)">
<path d="M74.9947 26.2443C76.0597 26.2443 76.923 25.381 76.923 24.316C76.923 23.251 76.0597 22.3877 74.9947 22.3877C73.9297 22.3877 73.0664 23.251 73.0664 24.316C73.0664 25.381 73.9297 26.2443 74.9947 26.2443Z" fill="#737373"/>
<path d="M74.9947 33.5715C76.0597 33.5715 76.923 32.7081 76.923 31.6432C76.923 30.5782 76.0597 29.7148 74.9947 29.7148C73.9297 29.7148 73.0664 30.5782 73.0664 31.6432C73.0664 32.7081 73.9297 33.5715 74.9947 33.5715Z" fill="#737373"/>
<path d="M74.9947 40.8996C76.0597 40.8996 76.923 40.0363 76.923 38.9713C76.923 37.9063 76.0597 37.043 74.9947 37.043C73.9297 37.043 73.0664 37.9063 73.0664 38.9713C73.0664 40.0363 73.9297 40.8996 74.9947 40.8996Z" fill="#737373"/>
</g>
<circle cx="117.514" cy="31.586" r="22.2142" transform="rotate(-44.1753 117.514 31.586)" fill="#EBECEC"/>
<path d="M123.34 37.4395L111.721 25.4803" stroke="#737373" stroke-width="2"/>
<line x1="123.27" y1="25.8823" x2="111.789" y2="37.0372" stroke="#737373" stroke-width="2"/>
<defs>
<clipPath id="clip0_365_10928">
<rect width="18.5118" height="18.5118" fill="white" transform="translate(37.9707 22.3877)"/>
</clipPath>
<clipPath id="clip1_365_10928">
<rect width="19.4374" height="19.4374" fill="white" transform="translate(0.0219727 22.3877)"/>
</clipPath>
<clipPath id="clip2_365_10928">
<rect width="18.5118" height="18.5118" fill="white" transform="translate(65.7388 22.3877)"/>
</clipPath>
</defs>
</svg>
