<svg width="551" height="231" viewBox="0 0 551 231" fill="none" xmlns="http://www.w3.org/2000/svg">
<rect width="551" height="231" rx="42" fill="white"/>
<path d="M51.72 180L48.52 174.44H46.78V180H44.5V166.1H49.3C50.3667 166.1 51.2667 166.287 52 166.66C52.7467 167.033 53.3 167.533 53.66 168.16C54.0333 168.787 54.22 169.487 54.22 170.26C54.22 171.167 53.9533 171.993 53.42 172.74C52.9 173.473 52.0933 173.973 51 174.24L54.44 180H51.72ZM46.78 172.62H49.3C50.1533 172.62 50.7933 172.407 51.22 171.98C51.66 171.553 51.88 170.98 51.88 170.26C51.88 169.54 51.6667 168.98 51.24 168.58C50.8133 168.167 50.1667 167.96 49.3 167.96H46.78V172.62ZM56.3767 174.44C56.3767 173.333 56.6034 172.353 57.0567 171.5C57.5234 170.647 58.1501 169.987 58.9367 169.52C59.7367 169.04 60.6167 168.8 61.5767 168.8C62.4434 168.8 63.1967 168.973 63.8367 169.32C64.4901 169.653 65.0101 170.073 65.3967 170.58V168.98H67.6967V180H65.3967V178.36C65.0101 178.88 64.4834 179.313 63.8167 179.66C63.1501 180.007 62.3901 180.18 61.5367 180.18C60.5901 180.18 59.7234 179.94 58.9367 179.46C58.1501 178.967 57.5234 178.287 57.0567 177.42C56.6034 176.54 56.3767 175.547 56.3767 174.44ZM65.3967 174.48C65.3967 173.72 65.2367 173.06 64.9167 172.5C64.6101 171.94 64.2034 171.513 63.6967 171.22C63.1901 170.927 62.6434 170.78 62.0567 170.78C61.4701 170.78 60.9234 170.927 60.4167 171.22C59.9101 171.5 59.4967 171.92 59.1767 172.48C58.8701 173.027 58.7167 173.68 58.7167 174.44C58.7167 175.2 58.8701 175.867 59.1767 176.44C59.4967 177.013 59.9101 177.453 60.4167 177.76C60.9367 178.053 61.4834 178.2 62.0567 178.2C62.6434 178.2 63.1901 178.053 63.6967 177.76C64.2034 177.467 64.6101 177.04 64.9167 176.48C65.2367 175.907 65.3967 175.24 65.3967 174.48ZM72.9714 170.6C73.3581 170.093 73.8847 169.667 74.5514 169.32C75.2181 168.973 75.9714 168.8 76.8114 168.8C77.7714 168.8 78.6447 169.04 79.4314 169.52C80.2314 169.987 80.8581 170.647 81.3114 171.5C81.7647 172.353 81.9914 173.333 81.9914 174.44C81.9914 175.547 81.7647 176.54 81.3114 177.42C80.8581 178.287 80.2314 178.967 79.4314 179.46C78.6447 179.94 77.7714 180.18 76.8114 180.18C75.9714 180.18 75.2247 180.013 74.5714 179.68C73.9181 179.333 73.3847 178.907 72.9714 178.4V185.24H70.6914V168.98H72.9714V170.6ZM79.6714 174.44C79.6714 173.68 79.5114 173.027 79.1914 172.48C78.8847 171.92 78.4714 171.5 77.9514 171.22C77.4447 170.927 76.8981 170.78 76.3114 170.78C75.7381 170.78 75.1914 170.927 74.6714 171.22C74.1647 171.513 73.7514 171.94 73.4314 172.5C73.1247 173.06 72.9714 173.72 72.9714 174.48C72.9714 175.24 73.1247 175.907 73.4314 176.48C73.7514 177.04 74.1647 177.467 74.6714 177.76C75.1914 178.053 75.7381 178.2 76.3114 178.2C76.8981 178.2 77.4447 178.053 77.9514 177.76C78.4714 177.453 78.8847 177.013 79.1914 176.44C79.5114 175.867 79.6714 175.2 79.6714 174.44ZM86.5261 170.6C86.9128 170.093 87.4394 169.667 88.1061 169.32C88.7728 168.973 89.5261 168.8 90.3661 168.8C91.3261 168.8 92.1994 169.04 92.9861 169.52C93.7861 169.987 94.4128 170.647 94.8661 171.5C95.3194 172.353 95.5461 173.333 95.5461 174.44C95.5461 175.547 95.3194 176.54 94.8661 177.42C94.4128 178.287 93.7861 178.967 92.9861 179.46C92.1994 179.94 91.3261 180.18 90.3661 180.18C89.5261 180.18 88.7794 180.013 88.1261 179.68C87.4728 179.333 86.9394 178.907 86.5261 178.4V185.24H84.2461V168.98H86.5261V170.6ZM93.2261 174.44C93.2261 173.68 93.0661 173.027 92.7461 172.48C92.4394 171.92 92.0261 171.5 91.5061 171.22C90.9994 170.927 90.4528 170.78 89.8661 170.78C89.2928 170.78 88.7461 170.927 88.2261 171.22C87.7194 171.513 87.3061 171.94 86.9861 172.5C86.6794 173.06 86.5261 173.72 86.5261 174.48C86.5261 175.24 86.6794 175.907 86.9861 176.48C87.3061 177.04 87.7194 177.467 88.2261 177.76C88.7461 178.053 89.2928 178.2 89.8661 178.2C90.4528 178.2 90.9994 178.053 91.5061 177.76C92.0261 177.453 92.4394 177.013 92.7461 176.44C93.0661 175.867 93.2261 175.2 93.2261 174.44ZM107.901 174.22C107.901 174.633 107.874 175.007 107.821 175.34H99.4008C99.4674 176.22 99.7941 176.927 100.381 177.46C100.967 177.993 101.687 178.26 102.541 178.26C103.767 178.26 104.634 177.747 105.141 176.72H107.601C107.267 177.733 106.661 178.567 105.781 179.22C104.914 179.86 103.834 180.18 102.541 180.18C101.487 180.18 100.541 179.947 99.7008 179.48C98.8741 179 98.2208 178.333 97.7408 177.48C97.2741 176.613 97.0408 175.613 97.0408 174.48C97.0408 173.347 97.2674 172.353 97.7208 171.5C98.1874 170.633 98.8341 169.967 99.6608 169.5C100.501 169.033 101.461 168.8 102.541 168.8C103.581 168.8 104.507 169.027 105.321 169.48C106.134 169.933 106.767 170.573 107.221 171.4C107.674 172.213 107.901 173.153 107.901 174.22ZM105.521 173.5C105.507 172.66 105.207 171.987 104.621 171.48C104.034 170.973 103.307 170.72 102.441 170.72C101.654 170.72 100.981 170.973 100.421 171.48C99.8608 171.973 99.5274 172.647 99.4208 173.5H105.521ZM112.425 165.2V180H110.145V165.2H112.425ZM117.918 177.26L115.498 182.78H114.018L115.438 177.26H117.918ZM133.485 177.16H127.665L126.665 180H124.285L129.265 166.08H131.905L136.885 180H134.485L133.485 177.16ZM132.845 175.3L130.585 168.84L128.305 175.3H132.845ZM141.331 165.2V180H139.051V165.2H141.331ZM143.564 174.44C143.564 173.333 143.791 172.353 144.244 171.5C144.711 170.647 145.338 169.987 146.124 169.52C146.924 169.04 147.804 168.8 148.764 168.8C149.631 168.8 150.384 168.973 151.024 169.32C151.678 169.653 152.198 170.073 152.584 170.58V168.98H154.884V180H152.584V178.36C152.198 178.88 151.671 179.313 151.004 179.66C150.338 180.007 149.578 180.18 148.724 180.18C147.778 180.18 146.911 179.94 146.124 179.46C145.338 178.967 144.711 178.287 144.244 177.42C143.791 176.54 143.564 175.547 143.564 174.44ZM152.584 174.48C152.584 173.72 152.424 173.06 152.104 172.5C151.798 171.94 151.391 171.513 150.884 171.22C150.378 170.927 149.831 170.78 149.244 170.78C148.658 170.78 148.111 170.927 147.604 171.22C147.098 171.5 146.684 171.92 146.364 172.48C146.058 173.027 145.904 173.68 145.904 174.44C145.904 175.2 146.058 175.867 146.364 176.44C146.684 177.013 147.098 177.453 147.604 177.76C148.124 178.053 148.671 178.2 149.244 178.2C149.831 178.2 150.378 178.053 150.884 177.76C151.391 177.467 151.798 177.04 152.104 176.48C152.424 175.907 152.584 175.24 152.584 174.48ZM160.159 170.58C160.492 170.02 160.932 169.587 161.479 169.28C162.039 168.96 162.699 168.8 163.459 168.8V171.16H162.879C161.986 171.16 161.306 171.387 160.839 171.84C160.386 172.293 160.159 173.08 160.159 174.2V180H157.879V168.98H160.159V170.58ZM178.895 168.8C179.761 168.8 180.535 168.98 181.215 169.34C181.908 169.7 182.448 170.233 182.835 170.94C183.235 171.647 183.435 172.5 183.435 173.5V180H181.175V173.84C181.175 172.853 180.928 172.1 180.435 171.58C179.941 171.047 179.268 170.78 178.415 170.78C177.561 170.78 176.881 171.047 176.375 171.58C175.881 172.1 175.635 172.853 175.635 173.84V180H173.375V173.84C173.375 172.853 173.128 172.1 172.635 171.58C172.141 171.047 171.468 170.78 170.615 170.78C169.761 170.78 169.081 171.047 168.575 171.58C168.081 172.1 167.835 172.853 167.835 173.84V180H165.555V168.98H167.835V170.24C168.208 169.787 168.681 169.433 169.255 169.18C169.828 168.927 170.441 168.8 171.095 168.8C171.975 168.8 172.761 168.987 173.455 169.36C174.148 169.733 174.681 170.273 175.055 170.98C175.388 170.313 175.908 169.787 176.615 169.4C177.321 169 178.081 168.8 178.895 168.8ZM196.436 174.22C196.436 174.633 196.409 175.007 196.356 175.34H187.936C188.003 176.22 188.329 176.927 188.916 177.46C189.503 177.993 190.223 178.26 191.076 178.26C192.303 178.26 193.169 177.747 193.676 176.72H196.136C195.803 177.733 195.196 178.567 194.316 179.22C193.449 179.86 192.369 180.18 191.076 180.18C190.023 180.18 189.076 179.947 188.236 179.48C187.409 179 186.756 178.333 186.276 177.48C185.809 176.613 185.576 175.613 185.576 174.48C185.576 173.347 185.803 172.353 186.256 171.5C186.723 170.633 187.369 169.967 188.196 169.5C189.036 169.033 189.996 168.8 191.076 168.8C192.116 168.8 193.043 169.027 193.856 169.48C194.669 169.933 195.303 170.573 195.756 171.4C196.209 172.213 196.436 173.153 196.436 174.22ZM194.056 173.5C194.043 172.66 193.743 171.987 193.156 171.48C192.569 170.973 191.843 170.72 190.976 170.72C190.189 170.72 189.516 170.973 188.956 171.48C188.396 171.973 188.063 172.647 187.956 173.5H194.056ZM201.18 177.26L198.76 182.78H197.28L198.7 177.26H201.18ZM207.607 174.48C207.607 173.347 207.834 172.353 208.287 171.5C208.754 170.633 209.394 169.967 210.207 169.5C211.021 169.033 211.954 168.8 213.007 168.8C214.341 168.8 215.441 169.12 216.307 169.76C217.187 170.387 217.781 171.287 218.087 172.46H215.627C215.427 171.913 215.107 171.487 214.667 171.18C214.227 170.873 213.674 170.72 213.007 170.72C212.074 170.72 211.327 171.053 210.767 171.72C210.221 172.373 209.947 173.293 209.947 174.48C209.947 175.667 210.221 176.593 210.767 177.26C211.327 177.927 212.074 178.26 213.007 178.26C214.327 178.26 215.201 177.68 215.627 176.52H218.087C217.767 177.64 217.167 178.533 216.287 179.2C215.407 179.853 214.314 180.18 213.007 180.18C211.954 180.18 211.021 179.947 210.207 179.48C209.394 179 208.754 178.333 208.287 177.48C207.834 176.613 207.607 175.613 207.607 174.48ZM230.459 174.22C230.459 174.633 230.433 175.007 230.379 175.34H221.959C222.026 176.22 222.353 176.927 222.939 177.46C223.526 177.993 224.246 178.26 225.099 178.26C226.326 178.26 227.193 177.747 227.699 176.72H230.159C229.826 177.733 229.219 178.567 228.339 179.22C227.473 179.86 226.393 180.18 225.099 180.18C224.046 180.18 223.099 179.947 222.259 179.48C221.433 179 220.779 178.333 220.299 177.48C219.833 176.613 219.599 175.613 219.599 174.48C219.599 173.347 219.826 172.353 220.279 171.5C220.746 170.633 221.393 169.967 222.219 169.5C223.059 169.033 224.019 168.8 225.099 168.8C226.139 168.8 227.066 169.027 227.879 169.48C228.693 169.933 229.326 170.573 229.779 171.4C230.233 172.213 230.459 173.153 230.459 174.22ZM228.079 173.5C228.066 172.66 227.766 171.987 227.179 171.48C226.593 170.973 225.866 170.72 224.999 170.72C224.213 170.72 223.539 170.973 222.979 171.48C222.419 171.973 222.086 172.647 221.979 173.5H228.079ZM241.898 180.18C241.032 180.18 240.252 180.027 239.558 179.72C238.878 179.4 238.338 178.973 237.938 178.44C237.538 177.893 237.325 177.287 237.298 176.62H239.658C239.698 177.087 239.918 177.48 240.318 177.8C240.732 178.107 241.245 178.26 241.858 178.26C242.498 178.26 242.992 178.14 243.338 177.9C243.698 177.647 243.878 177.327 243.878 176.94C243.878 176.527 243.678 176.22 243.278 176.02C242.892 175.82 242.272 175.6 241.418 175.36C240.592 175.133 239.918 174.913 239.398 174.7C238.878 174.487 238.425 174.16 238.038 173.72C237.665 173.28 237.478 172.7 237.478 171.98C237.478 171.393 237.652 170.86 237.998 170.38C238.345 169.887 238.838 169.5 239.478 169.22C240.132 168.94 240.878 168.8 241.718 168.8C242.972 168.8 243.978 169.12 244.738 169.76C245.512 170.387 245.925 171.247 245.978 172.34H243.698C243.658 171.847 243.458 171.453 243.098 171.16C242.738 170.867 242.252 170.72 241.638 170.72C241.038 170.72 240.578 170.833 240.258 171.06C239.938 171.287 239.778 171.587 239.778 171.96C239.778 172.253 239.885 172.5 240.098 172.7C240.312 172.9 240.572 173.06 240.878 173.18C241.185 173.287 241.638 173.427 242.238 173.6C243.038 173.813 243.692 174.033 244.198 174.26C244.718 174.473 245.165 174.793 245.538 175.22C245.912 175.647 246.105 176.213 246.118 176.92C246.118 177.547 245.945 178.107 245.598 178.6C245.252 179.093 244.758 179.48 244.118 179.76C243.492 180.04 242.752 180.18 241.898 180.18ZM253.362 180.18C252.322 180.18 251.382 179.947 250.542 179.48C249.702 179 249.042 178.333 248.562 177.48C248.082 176.613 247.842 175.613 247.842 174.48C247.842 173.36 248.089 172.367 248.582 171.5C249.075 170.633 249.749 169.967 250.602 169.5C251.455 169.033 252.409 168.8 253.462 168.8C254.515 168.8 255.469 169.033 256.322 169.5C257.175 169.967 257.849 170.633 258.342 171.5C258.835 172.367 259.082 173.36 259.082 174.48C259.082 175.6 258.829 176.593 258.322 177.46C257.815 178.327 257.122 179 256.242 179.48C255.375 179.947 254.415 180.18 253.362 180.18ZM253.362 178.2C253.949 178.2 254.495 178.06 255.002 177.78C255.522 177.5 255.942 177.08 256.262 176.52C256.582 175.96 256.742 175.28 256.742 174.48C256.742 173.68 256.589 173.007 256.282 172.46C255.975 171.9 255.569 171.48 255.062 171.2C254.555 170.92 254.009 170.78 253.422 170.78C252.835 170.78 252.289 170.92 251.782 171.2C251.289 171.48 250.895 171.9 250.602 172.46C250.309 173.007 250.162 173.68 250.162 174.48C250.162 175.667 250.462 176.587 251.062 177.24C251.675 177.88 252.442 178.2 253.362 178.2ZM262.496 167.52C262.083 167.52 261.736 167.38 261.456 167.1C261.176 166.82 261.036 166.473 261.036 166.06C261.036 165.647 261.176 165.3 261.456 165.02C261.736 164.74 262.083 164.6 262.496 164.6C262.896 164.6 263.236 164.74 263.516 165.02C263.796 165.3 263.936 165.647 263.936 166.06C263.936 166.473 263.796 166.82 263.516 167.1C263.236 167.38 262.896 167.52 262.496 167.52ZM263.616 168.98V180H261.336V168.98H263.616ZM268.889 170.58C269.223 170.02 269.663 169.587 270.209 169.28C270.769 168.96 271.429 168.8 272.189 168.8V171.16H271.609C270.716 171.16 270.036 171.387 269.569 171.84C269.116 172.293 268.889 173.08 268.889 174.2V180H266.609V168.98H268.889V170.58Z" fill="#737373"/>
<path d="M54.976 55.024H48.688L47.68 58H43.384L49.48 41.152H54.232L60.328 58H55.984L54.976 55.024ZM53.92 51.856L51.832 45.688L49.768 51.856H53.92ZM66.2873 40.24V58H62.1833V40.24H66.2873ZM68.4454 51.28C68.4454 49.904 68.7014 48.696 69.2134 47.656C69.7414 46.616 70.4534 45.816 71.3494 45.256C72.2454 44.696 73.2454 44.416 74.3494 44.416C75.2934 44.416 76.1174 44.608 76.8214 44.992C77.5414 45.376 78.0934 45.88 78.4774 46.504V44.608H82.5814V58H78.4774V56.104C78.0774 56.728 77.5174 57.232 76.7974 57.616C76.0934 58 75.2694 58.192 74.3254 58.192C73.2374 58.192 72.2454 57.912 71.3494 57.352C70.4534 56.776 69.7414 55.968 69.2134 54.928C68.7014 53.872 68.4454 52.656 68.4454 51.28ZM78.4774 51.304C78.4774 50.28 78.1894 49.472 77.6134 48.88C77.0534 48.288 76.3654 47.992 75.5494 47.992C74.7334 47.992 74.0374 48.288 73.4614 48.88C72.9014 49.456 72.6214 50.256 72.6214 51.28C72.6214 52.304 72.9014 53.12 73.4614 53.728C74.0374 54.32 74.7334 54.616 75.5494 54.616C76.3654 54.616 77.0534 54.32 77.6134 53.728C78.1894 53.136 78.4774 52.328 78.4774 51.304ZM89.6545 46.84C90.1345 46.104 90.7345 45.528 91.4545 45.112C92.1745 44.68 92.9745 44.464 93.8545 44.464V48.808H92.7265C91.7025 48.808 90.9345 49.032 90.4225 49.48C89.9105 49.912 89.6545 50.68 89.6545 51.784V58H85.5505V44.608H89.6545V46.84ZM112.904 44.464C114.568 44.464 115.888 44.968 116.864 45.976C117.856 46.984 118.352 48.384 118.352 50.176V58H114.272V50.728C114.272 49.864 114.04 49.2 113.576 48.736C113.128 48.256 112.504 48.016 111.704 48.016C110.904 48.016 110.272 48.256 109.808 48.736C109.36 49.2 109.136 49.864 109.136 50.728V58H105.056V50.728C105.056 49.864 104.824 49.2 104.36 48.736C103.912 48.256 103.288 48.016 102.488 48.016C101.688 48.016 101.056 48.256 100.592 48.736C100.144 49.2 99.9201 49.864 99.9201 50.728V58H95.8161V44.608H99.9201V46.288C100.336 45.728 100.88 45.288 101.552 44.968C102.224 44.632 102.984 44.464 103.832 44.464C104.84 44.464 105.736 44.68 106.52 45.112C107.32 45.544 107.944 46.16 108.392 46.96C108.856 46.224 109.488 45.624 110.288 45.16C111.088 44.696 111.96 44.464 112.904 44.464ZM133.846 51.088C133.846 51.472 133.822 51.872 133.774 52.288H124.486C124.55 53.12 124.814 53.76 125.278 54.208C125.758 54.64 126.342 54.856 127.03 54.856C128.054 54.856 128.766 54.424 129.166 53.56H133.534C133.31 54.44 132.902 55.232 132.31 55.936C131.734 56.64 131.006 57.192 130.126 57.592C129.246 57.992 128.262 58.192 127.174 58.192C125.862 58.192 124.694 57.912 123.67 57.352C122.646 56.792 121.846 55.992 121.27 54.952C120.694 53.912 120.406 52.696 120.406 51.304C120.406 49.912 120.686 48.696 121.246 47.656C121.822 46.616 122.622 45.816 123.646 45.256C124.67 44.696 125.846 44.416 127.174 44.416C128.47 44.416 129.622 44.688 130.63 45.232C131.638 45.776 132.422 46.552 132.982 47.56C133.558 48.568 133.846 49.744 133.846 51.088ZM129.646 50.008C129.646 49.304 129.406 48.744 128.926 48.328C128.446 47.912 127.846 47.704 127.126 47.704C126.438 47.704 125.854 47.904 125.374 48.304C124.91 48.704 124.622 49.272 124.51 50.008H129.646ZM141.459 58.192C140.291 58.192 139.251 57.992 138.339 57.592C137.427 57.192 136.707 56.648 136.179 55.96C135.651 55.256 135.355 54.472 135.291 53.608H139.347C139.395 54.072 139.611 54.448 139.995 54.736C140.379 55.024 140.851 55.168 141.411 55.168C141.923 55.168 142.315 55.072 142.587 54.88C142.875 54.672 143.019 54.408 143.019 54.088C143.019 53.704 142.819 53.424 142.419 53.248C142.019 53.056 141.371 52.848 140.475 52.624C139.515 52.4 138.715 52.168 138.075 51.928C137.435 51.672 136.883 51.28 136.419 50.752C135.955 50.208 135.723 49.48 135.723 48.568C135.723 47.8 135.931 47.104 136.347 46.48C136.779 45.84 137.403 45.336 138.219 44.968C139.051 44.6 140.035 44.416 141.171 44.416C142.851 44.416 144.171 44.832 145.131 45.664C146.107 46.496 146.667 47.6 146.811 48.976H143.019C142.955 48.512 142.747 48.144 142.395 47.872C142.059 47.6 141.611 47.464 141.051 47.464C140.571 47.464 140.203 47.56 139.947 47.752C139.691 47.928 139.563 48.176 139.563 48.496C139.563 48.88 139.763 49.168 140.163 49.36C140.579 49.552 141.219 49.744 142.083 49.936C143.075 50.192 143.883 50.448 144.507 50.704C145.131 50.944 145.675 51.344 146.139 51.904C146.619 52.448 146.867 53.184 146.883 54.112C146.883 54.896 146.659 55.6 146.211 56.224C145.779 56.832 145.147 57.312 144.315 57.664C143.499 58.016 142.547 58.192 141.459 58.192Z" fill="black"/>
<path d="M44.984 100.144V96.112H55.864V142H51.32V100.144H44.984ZM71.7995 129.776C72.2688 132.549 73.3355 134.683 74.9995 136.176C76.6635 137.669 78.9462 138.416 81.8475 138.416C85.8582 138.416 88.8235 136.859 90.7435 133.744C92.7062 130.587 93.6022 125.381 93.4315 118.128C92.6208 120.475 91.0635 122.331 88.7595 123.696C86.4982 125.019 83.8955 125.68 80.9515 125.68C76.4715 125.68 72.8662 124.336 70.1355 121.648C67.4475 118.96 66.1035 115.227 66.1035 110.448C66.1035 107.589 66.6582 105.008 67.7675 102.704C68.8768 100.4 70.5622 98.5867 72.8235 97.264C75.0848 95.9413 77.8582 95.28 81.1435 95.28C87.2022 95.28 91.4262 97.264 93.8155 101.232C96.2048 105.157 97.3995 110.811 97.3995 118.192C97.3995 126.171 96.2048 132.165 93.8155 136.176C91.4688 140.187 87.4155 142.192 81.6555 142.192C77.4315 142.192 74.1462 141.061 71.7995 138.8C69.4528 136.496 68.0662 133.488 67.6395 129.776H71.7995ZM81.6555 121.84C83.6608 121.84 85.4955 121.435 87.1595 120.624C88.8662 119.771 90.2315 118.533 91.2555 116.912C92.2795 115.291 92.7915 113.349 92.7915 111.088C92.7915 107.589 91.7888 104.709 89.7835 102.448C87.8208 100.187 84.9835 99.056 81.2715 99.056C77.9862 99.056 75.3408 100.08 73.3355 102.128C71.3728 104.176 70.3915 106.907 70.3915 110.32C70.3915 113.904 71.3728 116.72 73.3355 118.768C75.2982 120.816 78.0715 121.84 81.6555 121.84ZM107.576 142.32C106.637 142.32 105.848 142 105.208 141.36C104.61 140.72 104.312 139.931 104.312 138.992C104.312 138.053 104.61 137.285 105.208 136.688C105.848 136.048 106.637 135.728 107.576 135.728C108.472 135.728 109.218 136.048 109.816 136.688C110.456 137.285 110.776 138.053 110.776 138.992C110.776 139.931 110.456 140.72 109.816 141.36C109.218 142 108.472 142.32 107.576 142.32ZM107.576 114.48C106.637 114.48 105.848 114.16 105.208 113.52C104.61 112.88 104.312 112.091 104.312 111.152C104.312 110.213 104.61 109.445 105.208 108.848C105.848 108.208 106.637 107.888 107.576 107.888C108.472 107.888 109.218 108.208 109.816 108.848C110.456 109.445 110.776 110.213 110.776 111.152C110.776 112.091 110.456 112.88 109.816 113.52C109.218 114.16 108.472 114.48 107.576 114.48ZM117.66 118.64C117.66 111.301 118.791 105.605 121.052 101.552C123.313 97.4987 127.367 95.472 133.212 95.472C139.057 95.472 143.111 97.4987 145.372 101.552C147.633 105.605 148.764 111.301 148.764 118.64C148.764 126.107 147.633 131.888 145.372 135.984C143.111 140.08 139.057 142.128 133.212 142.128C127.324 142.128 123.249 140.08 120.988 135.984C118.769 131.888 117.66 126.107 117.66 118.64ZM144.348 118.64C144.348 114.672 144.071 111.323 143.516 108.592C142.961 105.861 141.873 103.664 140.252 102C138.631 100.336 136.284 99.504 133.212 99.504C130.14 99.504 127.793 100.336 126.172 102C124.551 103.664 123.463 105.861 122.908 108.592C122.353 111.323 122.076 114.672 122.076 118.64C122.076 122.736 122.353 126.171 122.908 128.944C123.463 131.675 124.551 133.872 126.172 135.536C127.793 137.2 130.14 138.032 133.212 138.032C136.284 138.032 138.631 137.2 140.252 135.536C141.873 133.872 142.961 131.675 143.516 128.944C144.071 126.171 144.348 122.736 144.348 118.64ZM157.098 118.64C157.098 111.301 158.228 105.605 160.49 101.552C162.751 97.4987 166.804 95.472 172.65 95.472C178.495 95.472 182.548 97.4987 184.81 101.552C187.071 105.605 188.201 111.301 188.201 118.64C188.201 126.107 187.071 131.888 184.81 135.984C182.548 140.08 178.495 142.128 172.65 142.128C166.762 142.128 162.687 140.08 160.426 135.984C158.207 131.888 157.098 126.107 157.098 118.64ZM183.786 118.64C183.786 114.672 183.508 111.323 182.954 108.592C182.399 105.861 181.311 103.664 179.69 102C178.068 100.336 175.722 99.504 172.65 99.504C169.578 99.504 167.231 100.336 165.61 102C163.988 103.664 162.9 105.861 162.345 108.592C161.791 111.323 161.514 114.672 161.514 118.64C161.514 122.736 161.791 126.171 162.345 128.944C162.9 131.675 163.988 133.872 165.61 135.536C167.231 137.2 169.578 138.032 172.65 138.032C175.722 138.032 178.068 137.2 179.69 135.536C181.311 133.872 182.399 131.675 182.954 128.944C183.508 126.171 183.786 122.736 183.786 118.64Z" fill="#737373"/>
<circle cx="478.5" cy="127.5" r="14.5" fill="#737373"/>
<rect x="454" y="113" width="24" height="29" fill="#737373"/>
<circle cx="453.5" cy="127.5" r="14.5" fill="black" fill-opacity="0.9"/>
</svg>
