<svg width="774" height="63" viewBox="0 0 774 63" fill="none" xmlns="http://www.w3.org/2000/svg">
<path d="M773 10C773 5.02944 768.971 1 764 1H10C5.02948 1 1 5.02944 1 10V53C1 57.9706 5.02948 62 10 62H764C768.971 62 773 57.9706 773 53V10Z" fill="white"/>
<path d="M773 10C773 5.02944 768.971 1 764 1H10C5.02948 1 1 5.02944 1 10V53C1 57.9706 5.02948 62 10 62H764C768.971 62 773 57.9706 773 53V10Z" stroke="#1C551B" stroke-width="2"/>
<path d="M63.92 25.8V39H62.4V30.7L62.58 27.22H62.56L58.22 39H56.86L52.52 27.22H52.5L52.68 30.7V39H51.16V25.8H53.62L56.52 33.82L57.52 37.12H57.56L58.58 33.84L61.46 25.8H63.92ZM71.9541 39.2C71.0074 39.2 70.1607 38.9933 69.4141 38.58C68.6807 38.1667 68.1074 37.5733 67.6941 36.8C67.2807 36.0133 67.0741 35.08 67.0741 34C67.0741 32.92 67.2807 31.9933 67.6941 31.22C68.1074 30.4333 68.6741 29.8333 69.3941 29.42C70.1141 29.0067 70.9341 28.8 71.8541 28.8C72.7874 28.8 73.5807 29 74.2341 29.4C74.9007 29.8 75.4074 30.3467 75.7541 31.04C76.1007 31.72 76.2741 32.4867 76.2741 33.34C76.2741 33.5667 76.2674 33.7733 76.2541 33.96C76.2407 34.1467 76.2207 34.3133 76.1941 34.46H68.1141V33.04H75.4941L74.6741 33.2C74.6741 32.24 74.4074 31.5 73.8741 30.98C73.3541 30.46 72.6674 30.2 71.8141 30.2C71.1607 30.2 70.5941 30.3533 70.1141 30.66C69.6474 30.9533 69.2807 31.3867 69.0141 31.96C68.7607 32.52 68.6341 33.2 68.6341 34C68.6341 34.7867 68.7674 35.4667 69.0341 36.04C69.3007 36.6133 69.6741 37.0533 70.1541 37.36C70.6474 37.6533 71.2341 37.8 71.9141 37.8C72.6474 37.8 73.2407 37.66 73.6941 37.38C74.1607 37.1 74.5341 36.72 74.8141 36.24L76.0741 36.98C75.8207 37.4333 75.4941 37.8267 75.0941 38.16C74.7074 38.4933 74.2474 38.7533 73.7141 38.94C73.1941 39.1133 72.6074 39.2 71.9541 39.2ZM82.917 39.2C81.9437 39.2 81.0437 38.9933 80.217 38.58C79.4037 38.1667 78.777 37.58 78.337 36.82L79.697 35.84C79.9904 36.4533 80.417 36.9333 80.977 37.28C81.5504 37.6267 82.237 37.8 83.037 37.8C83.7437 37.8 84.297 37.6667 84.697 37.4C85.097 37.12 85.297 36.76 85.297 36.32C85.297 36.04 85.2037 35.7867 85.017 35.56C84.8437 35.32 84.5037 35.1467 83.997 35.04L81.597 34.54C80.6237 34.34 79.9237 34.0067 79.497 33.54C79.0837 33.0733 78.877 32.4933 78.877 31.8C78.877 31.2533 79.0304 30.7533 79.337 30.3C79.657 29.8467 80.1037 29.4867 80.677 29.22C81.2637 28.94 81.9504 28.8 82.737 28.8C83.7237 28.8 84.557 28.9933 85.237 29.38C85.917 29.7667 86.4237 30.3133 86.757 31.02L85.417 31.9C85.1904 31.3133 84.8237 30.8867 84.317 30.62C83.8104 30.34 83.2837 30.2 82.737 30.2C82.257 30.2 81.8437 30.2667 81.497 30.4C81.1637 30.5333 80.9037 30.72 80.717 30.96C80.5437 31.1867 80.457 31.4467 80.457 31.74C80.457 32.0333 80.557 32.3067 80.757 32.56C80.957 32.8 81.3304 32.9733 81.877 33.08L84.377 33.6C85.3104 33.7867 85.9637 34.0933 86.337 34.52C86.7104 34.9467 86.897 35.4667 86.897 36.08C86.897 36.7067 86.7304 37.26 86.397 37.74C86.0637 38.2067 85.597 38.5667 84.997 38.82C84.397 39.0733 83.7037 39.2 82.917 39.2ZM93.4639 39.2C92.4906 39.2 91.5906 38.9933 90.7639 38.58C89.9506 38.1667 89.3239 37.58 88.8839 36.82L90.2439 35.84C90.5372 36.4533 90.9639 36.9333 91.5239 37.28C92.0972 37.6267 92.7839 37.8 93.5839 37.8C94.2906 37.8 94.8439 37.6667 95.2439 37.4C95.6439 37.12 95.8439 36.76 95.8439 36.32C95.8439 36.04 95.7506 35.7867 95.5639 35.56C95.3906 35.32 95.0506 35.1467 94.5439 35.04L92.1439 34.54C91.1706 34.34 90.4706 34.0067 90.0439 33.54C89.6306 33.0733 89.4239 32.4933 89.4239 31.8C89.4239 31.2533 89.5772 30.7533 89.8839 30.3C90.2039 29.8467 90.6506 29.4867 91.2239 29.22C91.8106 28.94 92.4972 28.8 93.2839 28.8C94.2706 28.8 95.1039 28.9933 95.7839 29.38C96.4639 29.7667 96.9706 30.3133 97.3039 31.02L95.9639 31.9C95.7372 31.3133 95.3706 30.8867 94.8639 30.62C94.3572 30.34 93.8306 30.2 93.2839 30.2C92.8039 30.2 92.3906 30.2667 92.0439 30.4C91.7106 30.5333 91.4506 30.72 91.2639 30.96C91.0906 31.1867 91.0039 31.4467 91.0039 31.74C91.0039 32.0333 91.1039 32.3067 91.3039 32.56C91.5039 32.8 91.8772 32.9733 92.4239 33.08L94.9239 33.6C95.8572 33.7867 96.5106 34.0933 96.8839 34.52C97.2572 34.9467 97.4439 35.4667 97.4439 36.08C97.4439 36.7067 97.2772 37.26 96.9439 37.74C96.6106 38.2067 96.1439 38.5667 95.5439 38.82C94.9439 39.0733 94.2506 39.2 93.4639 39.2ZM106.251 32.54C106.251 31.7933 106.051 31.22 105.651 30.82C105.251 30.4067 104.684 30.2 103.951 30.2C103.257 30.2 102.671 30.3533 102.191 30.66C101.711 30.9533 101.357 31.4333 101.131 32.1L99.8308 31.3C100.097 30.5533 100.591 29.9533 101.311 29.5C102.031 29.0333 102.924 28.8 103.991 28.8C104.711 28.8 105.364 28.9267 105.951 29.18C106.537 29.42 106.997 29.7933 107.331 30.3C107.677 30.7933 107.851 31.4333 107.851 32.22V37.06C107.851 37.54 108.104 37.78 108.611 37.78C108.864 37.78 109.111 37.7467 109.351 37.68L109.271 38.94C109.004 39.0733 108.657 39.14 108.231 39.14C107.844 39.14 107.497 39.0667 107.191 38.92C106.884 38.7733 106.644 38.5533 106.471 38.26C106.297 37.9533 106.211 37.5733 106.211 37.12V36.92L106.611 36.98C106.451 37.5 106.177 37.9267 105.791 38.26C105.404 38.58 104.971 38.82 104.491 38.98C104.011 39.1267 103.537 39.2 103.071 39.2C102.484 39.2 101.937 39.1 101.431 38.9C100.924 38.7 100.517 38.4 100.211 38C99.9174 37.5867 99.7708 37.08 99.7708 36.48C99.7708 35.7333 100.017 35.12 100.511 34.64C101.017 34.1467 101.717 33.8133 102.611 33.64L106.571 32.86V34.18L103.351 34.84C102.697 34.9733 102.211 35.16 101.891 35.4C101.571 35.64 101.411 35.9733 101.411 36.4C101.411 36.8133 101.571 37.1533 101.891 37.42C102.224 37.6733 102.691 37.8 103.291 37.8C103.677 37.8 104.044 37.7533 104.391 37.66C104.751 37.5533 105.071 37.4 105.351 37.2C105.631 36.9867 105.851 36.7267 106.011 36.42C106.171 36.1 106.251 35.7267 106.251 35.3V32.54ZM120.159 27.16L120.519 28.58C120.506 28.58 120.486 28.58 120.459 28.58C120.432 28.58 120.406 28.58 120.379 28.58C119.726 28.58 119.219 28.7133 118.859 28.98C118.512 29.2333 118.339 29.6467 118.339 30.22L117.359 29.72C117.359 29.2 117.479 28.7467 117.719 28.36C117.959 27.9733 118.286 27.68 118.699 27.48C119.112 27.2667 119.566 27.16 120.059 27.16C120.072 27.16 120.086 27.16 120.099 27.16C120.126 27.16 120.146 27.16 120.159 27.16ZM117.119 37.72C118.066 37.72 118.806 37.94 119.339 38.38C119.872 38.8067 120.139 39.38 120.139 40.1C120.139 40.7533 119.919 41.32 119.479 41.8C119.052 42.28 118.472 42.6467 117.739 42.9C117.019 43.1667 116.206 43.3 115.299 43.3C113.726 43.3 112.546 43.0333 111.759 42.5C110.986 41.9667 110.599 41.3267 110.599 40.58C110.599 40.0467 110.772 39.5667 111.119 39.14C111.479 38.7267 112.079 38.4933 112.919 38.44L112.779 38.74C112.326 38.62 111.939 38.42 111.619 38.14C111.312 37.8467 111.159 37.4267 111.159 36.88C111.159 36.3333 111.359 35.8667 111.759 35.48C112.172 35.08 112.779 34.8333 113.579 34.74L114.639 35.28H114.439C113.786 35.3467 113.319 35.5133 113.039 35.78C112.772 36.0333 112.639 36.3133 112.639 36.62C112.639 36.9933 112.772 37.2733 113.039 37.46C113.319 37.6333 113.706 37.72 114.199 37.72H117.119ZM115.279 41.96C116.052 41.96 116.686 41.88 117.179 41.72C117.686 41.56 118.059 41.3533 118.299 41.1C118.539 40.8467 118.659 40.5733 118.659 40.28C118.659 39.92 118.512 39.6333 118.219 39.42C117.939 39.2067 117.426 39.1 116.679 39.1H113.599C113.172 39.1 112.812 39.2067 112.519 39.42C112.226 39.6467 112.079 39.9533 112.079 40.34C112.079 40.8333 112.359 41.2267 112.919 41.52C113.492 41.8133 114.279 41.96 115.279 41.96ZM115.139 28.8C115.939 28.8 116.646 28.9467 117.259 29.24C117.886 29.52 118.372 29.9133 118.719 30.42C119.066 30.9267 119.239 31.5133 119.239 32.18C119.239 32.8333 119.066 33.42 118.719 33.94C118.372 34.4467 117.886 34.8467 117.259 35.14C116.646 35.42 115.939 35.56 115.139 35.56C113.819 35.56 112.806 35.2467 112.099 34.62C111.392 33.98 111.039 33.1667 111.039 32.18C111.039 31.5133 111.212 30.9267 111.559 30.42C111.919 29.9133 112.406 29.52 113.019 29.24C113.632 28.9467 114.339 28.8 115.139 28.8ZM115.139 30.1C114.446 30.1 113.866 30.2933 113.399 30.68C112.932 31.0533 112.699 31.5533 112.699 32.18C112.699 32.7933 112.932 33.2933 113.399 33.68C113.866 34.0667 114.446 34.26 115.139 34.26C115.832 34.26 116.412 34.0667 116.879 33.68C117.346 33.2933 117.579 32.7933 117.579 32.18C117.579 31.5533 117.346 31.0533 116.879 30.68C116.412 30.2933 115.832 30.1 115.139 30.1ZM126.563 39.2C125.617 39.2 124.77 38.9933 124.023 38.58C123.29 38.1667 122.717 37.5733 122.303 36.8C121.89 36.0133 121.683 35.08 121.683 34C121.683 32.92 121.89 31.9933 122.303 31.22C122.717 30.4333 123.283 29.8333 124.003 29.42C124.723 29.0067 125.543 28.8 126.463 28.8C127.397 28.8 128.19 29 128.843 29.4C129.51 29.8 130.017 30.3467 130.363 31.04C130.71 31.72 130.883 32.4867 130.883 33.34C130.883 33.5667 130.877 33.7733 130.863 33.96C130.85 34.1467 130.83 34.3133 130.803 34.46H122.723V33.04H130.103L129.283 33.2C129.283 32.24 129.017 31.5 128.483 30.98C127.963 30.46 127.277 30.2 126.423 30.2C125.77 30.2 125.203 30.3533 124.723 30.66C124.257 30.9533 123.89 31.3867 123.623 31.96C123.37 32.52 123.243 33.2 123.243 34C123.243 34.7867 123.377 35.4667 123.643 36.04C123.91 36.6133 124.283 37.0533 124.763 37.36C125.257 37.6533 125.843 37.8 126.523 37.8C127.257 37.8 127.85 37.66 128.303 37.38C128.77 37.1 129.143 36.72 129.423 36.24L130.683 36.98C130.43 37.4333 130.103 37.8267 129.703 38.16C129.317 38.4933 128.857 38.7533 128.323 38.94C127.803 39.1133 127.217 39.2 126.563 39.2ZM144.883 28.8C145.576 28.8 146.183 28.9067 146.703 29.12C147.236 29.3333 147.696 29.64 148.083 30.04C148.469 30.44 148.783 30.9133 149.023 31.46L147.503 32.18C147.289 31.54 146.963 31.0533 146.523 30.72C146.096 30.3733 145.536 30.2 144.843 30.2C144.176 30.2 143.603 30.3533 143.123 30.66C142.643 30.9533 142.276 31.3867 142.023 31.96C141.769 32.52 141.643 33.2 141.643 34C141.643 34.7867 141.769 35.4667 142.023 36.04C142.276 36.6133 142.643 37.0533 143.123 37.36C143.603 37.6533 144.176 37.8 144.843 37.8C145.363 37.8 145.809 37.72 146.183 37.56C146.569 37.4 146.883 37.1667 147.123 36.86C147.376 36.5533 147.549 36.18 147.643 35.74L149.123 36.26C148.896 36.8733 148.583 37.4 148.183 37.84C147.796 38.28 147.323 38.62 146.763 38.86C146.216 39.0867 145.589 39.2 144.883 39.2C143.949 39.2 143.116 38.9933 142.383 38.58C141.649 38.1667 141.076 37.5733 140.663 36.8C140.249 36.0133 140.043 35.08 140.043 34C140.043 32.92 140.249 31.9933 140.663 31.22C141.076 30.4333 141.649 29.8333 142.383 29.42C143.116 29.0067 143.949 28.8 144.883 28.8ZM156.074 28.8C157.021 28.8 157.854 29.0067 158.574 29.42C159.308 29.8333 159.881 30.4333 160.294 31.22C160.708 31.9933 160.914 32.92 160.914 34C160.914 35.08 160.708 36.0133 160.294 36.8C159.881 37.5733 159.308 38.1667 158.574 38.58C157.854 38.9933 157.021 39.2 156.074 39.2C155.141 39.2 154.308 38.9933 153.574 38.58C152.841 38.1667 152.268 37.5733 151.854 36.8C151.441 36.0133 151.234 35.08 151.234 34C151.234 32.92 151.441 31.9933 151.854 31.22C152.268 30.4333 152.841 29.8333 153.574 29.42C154.308 29.0067 155.141 28.8 156.074 28.8ZM156.074 30.18C155.394 30.18 154.814 30.3333 154.334 30.64C153.854 30.9467 153.481 31.3867 153.214 31.96C152.961 32.52 152.834 33.2 152.834 34C152.834 34.7867 152.961 35.4667 153.214 36.04C153.481 36.6133 153.854 37.0533 154.334 37.36C154.814 37.6667 155.394 37.82 156.074 37.82C156.754 37.82 157.334 37.6667 157.814 37.36C158.294 37.0533 158.661 36.6133 158.914 36.04C159.181 35.4667 159.314 34.7867 159.314 34C159.314 33.2 159.181 32.52 158.914 31.96C158.661 31.3867 158.294 30.9467 157.814 30.64C157.334 30.3333 156.754 30.18 156.074 30.18ZM168.066 28.8C169.013 28.8 169.846 29.0067 170.566 29.42C171.3 29.8333 171.873 30.4333 172.286 31.22C172.7 31.9933 172.906 32.92 172.906 34C172.906 35.08 172.7 36.0133 172.286 36.8C171.873 37.5733 171.3 38.1667 170.566 38.58C169.846 38.9933 169.013 39.2 168.066 39.2C167.133 39.2 166.3 38.9933 165.566 38.58C164.833 38.1667 164.26 37.5733 163.846 36.8C163.433 36.0133 163.226 35.08 163.226 34C163.226 32.92 163.433 31.9933 163.846 31.22C164.26 30.4333 164.833 29.8333 165.566 29.42C166.3 29.0067 167.133 28.8 168.066 28.8ZM168.066 30.18C167.386 30.18 166.806 30.3333 166.326 30.64C165.846 30.9467 165.473 31.3867 165.206 31.96C164.953 32.52 164.826 33.2 164.826 34C164.826 34.7867 164.953 35.4667 165.206 36.04C165.473 36.6133 165.846 37.0533 166.326 37.36C166.806 37.6667 167.386 37.82 168.066 37.82C168.746 37.82 169.326 37.6667 169.806 37.36C170.286 37.0533 170.653 36.6133 170.906 36.04C171.173 35.4667 171.306 34.7867 171.306 34C171.306 33.2 171.173 32.52 170.906 31.96C170.653 31.3867 170.286 30.9467 169.806 30.64C169.326 30.3333 168.746 30.18 168.066 30.18ZM184.699 29L180.379 33.32L179.999 33.7L176.719 36.98V34.98L182.679 29H184.699ZM177.519 24.4V39H175.919V24.4H177.519ZM180.519 32.5L184.939 39H182.999L179.179 33.4L180.519 32.5ZM191.095 39.2C190.148 39.2 189.301 38.9933 188.555 38.58C187.821 38.1667 187.248 37.5733 186.835 36.8C186.421 36.0133 186.215 35.08 186.215 34C186.215 32.92 186.421 31.9933 186.835 31.22C187.248 30.4333 187.815 29.8333 188.535 29.42C189.255 29.0067 190.075 28.8 190.995 28.8C191.928 28.8 192.721 29 193.375 29.4C194.041 29.8 194.548 30.3467 194.895 31.04C195.241 31.72 195.415 32.4867 195.415 33.34C195.415 33.5667 195.408 33.7733 195.395 33.96C195.381 34.1467 195.361 34.3133 195.335 34.46H187.255V33.04H194.635L193.815 33.2C193.815 32.24 193.548 31.5 193.015 30.98C192.495 30.46 191.808 30.2 190.955 30.2C190.301 30.2 189.735 30.3533 189.255 30.66C188.788 30.9533 188.421 31.3867 188.155 31.96C187.901 32.52 187.775 33.2 187.775 34C187.775 34.7867 187.908 35.4667 188.175 36.04C188.441 36.6133 188.815 37.0533 189.295 37.36C189.788 37.6533 190.375 37.8 191.055 37.8C191.788 37.8 192.381 37.66 192.835 37.38C193.301 37.1 193.675 36.72 193.955 36.24L195.215 36.98C194.961 37.4333 194.635 37.8267 194.235 38.16C193.848 38.4933 193.388 38.7533 192.855 38.94C192.335 39.1133 191.748 39.2 191.095 39.2ZM204.298 32.54C204.298 31.7933 204.098 31.22 203.698 30.82C203.298 30.4067 202.731 30.2 201.998 30.2C201.304 30.2 200.718 30.3533 200.238 30.66C199.758 30.9533 199.404 31.4333 199.178 32.1L197.878 31.3C198.144 30.5533 198.638 29.9533 199.358 29.5C200.078 29.0333 200.971 28.8 202.038 28.8C202.758 28.8 203.411 28.9267 203.998 29.18C204.584 29.42 205.044 29.7933 205.378 30.3C205.724 30.7933 205.898 31.4333 205.898 32.22V37.06C205.898 37.54 206.151 37.78 206.658 37.78C206.911 37.78 207.158 37.7467 207.398 37.68L207.318 38.94C207.051 39.0733 206.704 39.14 206.278 39.14C205.891 39.14 205.544 39.0667 205.238 38.92C204.931 38.7733 204.691 38.5533 204.518 38.26C204.344 37.9533 204.258 37.5733 204.258 37.12V36.92L204.658 36.98C204.498 37.5 204.224 37.9267 203.838 38.26C203.451 38.58 203.018 38.82 202.538 38.98C202.058 39.1267 201.584 39.2 201.118 39.2C200.531 39.2 199.984 39.1 199.478 38.9C198.971 38.7 198.564 38.4 198.258 38C197.964 37.5867 197.818 37.08 197.818 36.48C197.818 35.7333 198.064 35.12 198.558 34.64C199.064 34.1467 199.764 33.8133 200.658 33.64L204.618 32.86V34.18L201.398 34.84C200.744 34.9733 200.258 35.16 199.938 35.4C199.618 35.64 199.458 35.9733 199.458 36.4C199.458 36.8133 199.618 37.1533 199.938 37.42C200.271 37.6733 200.738 37.8 201.338 37.8C201.724 37.8 202.091 37.7533 202.438 37.66C202.798 37.5533 203.118 37.4 203.398 37.2C203.678 36.9867 203.898 36.7267 204.058 36.42C204.218 36.1 204.298 35.7267 204.298 35.3V32.54ZM213.386 39.2C212.412 39.2 211.512 38.9933 210.686 38.58C209.872 38.1667 209.246 37.58 208.806 36.82L210.166 35.84C210.459 36.4533 210.886 36.9333 211.446 37.28C212.019 37.6267 212.706 37.8 213.506 37.8C214.212 37.8 214.766 37.6667 215.166 37.4C215.566 37.12 215.766 36.76 215.766 36.32C215.766 36.04 215.672 35.7867 215.486 35.56C215.312 35.32 214.972 35.1467 214.466 35.04L212.066 34.54C211.092 34.34 210.392 34.0067 209.966 33.54C209.552 33.0733 209.346 32.4933 209.346 31.8C209.346 31.2533 209.499 30.7533 209.806 30.3C210.126 29.8467 210.572 29.4867 211.146 29.22C211.732 28.94 212.419 28.8 213.206 28.8C214.192 28.8 215.026 28.9933 215.706 29.38C216.386 29.7667 216.892 30.3133 217.226 31.02L215.886 31.9C215.659 31.3133 215.292 30.8867 214.786 30.62C214.279 30.34 213.752 30.2 213.206 30.2C212.726 30.2 212.312 30.2667 211.966 30.4C211.632 30.5333 211.372 30.72 211.186 30.96C211.012 31.1867 210.926 31.4467 210.926 31.74C210.926 32.0333 211.026 32.3067 211.226 32.56C211.426 32.8 211.799 32.9733 212.346 33.08L214.846 33.6C215.779 33.7867 216.432 34.0933 216.806 34.52C217.179 34.9467 217.366 35.4667 217.366 36.08C217.366 36.7067 217.199 37.26 216.866 37.74C216.532 38.2067 216.066 38.5667 215.466 38.82C214.866 39.0733 214.172 39.2 213.386 39.2ZM224.513 39.2C223.566 39.2 222.719 38.9933 221.973 38.58C221.239 38.1667 220.666 37.5733 220.253 36.8C219.839 36.0133 219.633 35.08 219.633 34C219.633 32.92 219.839 31.9933 220.253 31.22C220.666 30.4333 221.233 29.8333 221.953 29.42C222.673 29.0067 223.493 28.8 224.413 28.8C225.346 28.8 226.139 29 226.793 29.4C227.459 29.8 227.966 30.3467 228.313 31.04C228.659 31.72 228.833 32.4867 228.833 33.34C228.833 33.5667 228.826 33.7733 228.813 33.96C228.799 34.1467 228.779 34.3133 228.753 34.46H220.673V33.04H228.053L227.233 33.2C227.233 32.24 226.966 31.5 226.433 30.98C225.913 30.46 225.226 30.2 224.373 30.2C223.719 30.2 223.153 30.3533 222.673 30.66C222.206 30.9533 221.839 31.3867 221.573 31.96C221.319 32.52 221.193 33.2 221.193 34C221.193 34.7867 221.326 35.4667 221.593 36.04C221.859 36.6133 222.233 37.0533 222.713 37.36C223.206 37.6533 223.793 37.8 224.473 37.8C225.206 37.8 225.799 37.66 226.253 37.38C226.719 37.1 227.093 36.72 227.373 36.24L228.633 36.98C228.379 37.4333 228.053 37.8267 227.653 38.16C227.266 38.4933 226.806 38.7533 226.273 38.94C225.753 39.1133 225.166 39.2 224.513 39.2Z" fill="#737373"/>
<g clip-path="url(#clip0_326_1523)">
<path d="M26.4998 43C22.8007 43 19.7915 39.9908 19.7915 36.2917V24.7917C19.7915 22.1467 21.9382 20 24.5832 20C27.2282 20 29.3748 22.1467 29.3748 24.7917V36.2917C29.3748 37.8729 28.0811 39.1667 26.4998 39.1667C24.9186 39.1667 23.6248 37.8729 23.6248 36.2917V25.75H25.5415V36.2917C25.5415 36.8188 25.9728 37.25 26.4998 37.25C27.0269 37.25 27.4582 36.8188 27.4582 36.2917V24.7917C27.4582 23.2104 26.1644 21.9167 24.5832 21.9167C23.0019 21.9167 21.7082 23.2104 21.7082 24.7917V36.2917C21.7082 38.9367 23.8548 41.0833 26.4998 41.0833C29.1448 41.0833 31.2915 38.9367 31.2915 36.2917V22.875H33.2082V36.2917C33.2082 39.9908 30.199 43 26.4998 43Z" fill="#1C551B"/>
</g>
<path d="M683.874 32.2667C683.874 36.6197 680.287 40.2439 675.593 40.9435V42.5333C675.593 43.3429 674.853 44 673.937 44C673.021 44 672.281 43.3429 672.281 42.5333V40.9435C667.587 40.2439 664 36.6197 664 32.2667C664 31.4571 664.74 30.8 665.656 30.8C666.572 30.8 667.312 31.4571 667.312 32.2667C667.312 35.5021 670.284 38.1333 673.937 38.1333C677.591 38.1333 680.562 35.5021 680.562 32.2667C680.562 31.4571 681.302 30.8 682.218 30.8C683.134 30.8 683.874 31.4571 683.874 32.2667ZM670.625 32.2667V24.9333C670.625 23.3127 672.107 22 673.937 22C675.767 22 677.25 23.3127 677.25 24.9333V32.2667C677.25 33.8873 675.767 35.2 673.937 35.2C672.107 35.2 670.625 33.8873 670.625 32.2667Z" fill="#1C551B"/>
<path d="M736.707 22.2929C736.317 21.9024 735.683 21.9024 735.293 22.2929L728.929 28.6569C728.538 29.0474 728.538 29.6805 728.929 30.0711C729.319 30.4616 729.953 30.4616 730.343 30.0711L736 24.4142L741.657 30.0711C742.047 30.4616 742.681 30.4616 743.071 30.0711C743.462 29.6805 743.462 29.0474 743.071 28.6569L736.707 22.2929ZM737 41L737 23L735 23L735 41L737 41Z" fill="#1C551B"/>
<circle cx="736" cy="32" r="19" stroke="#1C551B" stroke-width="2"/>
<defs>
<clipPath id="clip0_326_1523">
<rect width="23" height="23" fill="white" transform="translate(15 20)"/>
</clipPath>
</defs>
</svg>
