<svg width="55" height="55" viewBox="0 0 55 55" fill="none" xmlns="http://www.w3.org/2000/svg">
<circle cx="27.5" cy="27.5" r="26.5" transform="matrix(1 0 0 -1 0 55)" stroke="black" stroke-width="2"/>
<path d="M36.9081 30.9908C35.9997 32.1165 34.6298 32.7695 33.1833 32.7665H31.4067L31.4852 33.2268C31.805 35.1018 30.5443 36.8811 28.6692 37.201C28.4629 37.2362 28.2538 37.2525 28.0446 37.2497C26.7298 37.2565 25.5236 36.5212 24.9273 35.3494L23.6093 32.7665H21.7944C19.1477 32.7636 17.0029 30.6187 17 27.972V23.6135C17.0029 20.9668 19.1477 18.8219 21.7944 18.8191H32.2619C34.5243 18.8273 36.476 20.409 36.9526 22.6206L37.874 26.9792C38.1763 28.3936 37.8211 29.8689 36.9081 30.9908ZM19.6151 23.6135V27.972C19.6151 29.1756 20.5908 30.1513 21.7944 30.1513H23.102V21.4342H21.7944C20.5908 21.4342 19.6151 22.4099 19.6151 23.6135ZM35.3155 27.5205L34.3932 23.1619C34.1769 22.1568 33.29 21.4378 32.2619 21.4342H25.7171V31.1442L27.2565 34.1612C27.4197 34.4666 27.744 34.6508 28.0899 34.6345C28.5482 34.6343 28.9195 34.2624 28.9192 33.8041C28.9192 33.7579 28.9153 33.7117 28.9076 33.6661L28.3087 30.1513H33.1833C34.3869 30.1514 35.3627 29.1758 35.3628 27.9723C35.3628 27.8204 35.3469 27.6691 35.3155 27.5205Z" fill="black" fill-opacity="0.9"/>
</svg>
