<svg width="55" height="55" viewBox="0 0 55 55" fill="none" xmlns="http://www.w3.org/2000/svg">
<g filter="url(#filter0_b_326_1272)">
<circle cx="27.5" cy="27.5" r="27.5" fill="black" fill-opacity="0.1"/>
</g>
<path d="M18.1948 19.6115C18.6772 18.7254 19.2754 17.9169 20.0051 17.2324C20.6034 16.6711 21.2042 16.0826 21.9923 15.7666C22.0201 15.7727 22.0593 15.7788 22.0672 15.7998C22.2335 16.2651 22.5957 16.5366 23.0085 16.7584C23.0721 16.9208 23.0085 17.0718 22.9658 17.2237C22.3841 19.2754 22.6593 21.1987 23.8174 22.991C23.888 23.1002 23.9611 23.2084 23.9873 23.3403C23.9071 23.8196 23.8314 24.2997 23.8784 24.7895C23.7992 24.9554 23.6389 24.9833 23.4848 25.02C23.3725 25.0471 23.2567 25.0637 23.1522 25.1143C22.9649 25.2042 22.7838 25.3142 22.7742 25.5464C22.7647 25.7804 22.9292 25.9245 23.1226 25.9978C23.5963 26.1777 24.0822 26.1846 24.5541 25.9891C24.8206 25.8782 24.9538 25.6652 24.9094 25.364C24.9704 25.123 25.1027 24.9336 25.3152 24.8017C25.4075 24.7939 25.4833 24.8358 25.5521 24.8882C26.1764 25.3561 26.8434 25.7455 27.5845 25.9996C27.6524 26.0231 27.7107 26.0677 27.7534 26.1279C27.709 26.4885 27.332 26.3313 27.123 26.5251C27.6054 26.7818 27.8788 26.3924 28.2132 26.2458C28.6651 26.2161 29.1005 26.3453 29.5464 26.3837C31.5152 26.5504 33.3674 26.1733 35.1212 25.2706C35.7176 24.9641 36.2601 24.587 36.7495 24.1278C36.9376 23.9505 37.1205 23.7585 37.3852 23.6912C37.5689 24.2404 37.4322 24.8035 37.4557 25.3605C36.6659 27.8976 34.9958 29.6786 32.7004 30.9209C31.072 31.8027 29.3243 32.2034 27.4817 32.1702C26.6998 32.1563 25.9274 32.0262 25.1707 31.8167C25.0583 31.7852 24.9495 31.7468 24.8685 31.6569C24.7919 31.4884 24.9016 31.3522 24.9486 31.2064C25.1271 30.6538 24.9399 30.2111 24.4174 29.9562C23.7678 29.6393 23.1922 29.7737 22.7446 30.3508C22.6828 30.4311 22.634 30.5202 22.5243 30.5429C22.2883 30.5429 22.1203 30.3953 21.9496 30.2661C19.5706 28.472 18.2583 26.0764 17.8787 23.1255C17.7237 21.9189 17.9004 20.7665 18.1965 19.6132L18.1948 19.6115Z" fill="#D5975E"/>
<path d="M27.7484 26.1415C26.8305 25.9058 26.0477 25.4177 25.3197 24.8293C25.2091 24.6102 25.2953 24.3788 25.2832 24.1544C25.2701 23.9074 25.2448 23.6682 25.1099 23.4551C24.9026 23.1277 24.6048 23.0465 24.2635 23.2264C24.1529 23.2849 24.0658 23.4001 23.9178 23.3591C23.0165 22.1849 22.6238 20.8246 22.5358 19.3754C22.4914 18.642 22.6255 17.9122 22.8476 17.205C22.8946 17.0548 22.9233 16.8986 22.9599 16.7449C23.0435 16.6183 23.1819 16.6358 23.3056 16.6122C24.0902 16.4612 24.4681 15.8151 24.2243 15.0425C24.1912 14.9377 24.1085 14.8373 24.1877 14.7194C25.163 14.4986 26.1452 14.2873 27.1449 14.3004C28.4938 14.3187 29.8139 14.5457 31.0634 15.0861C31.1723 15.1333 31.2785 15.1621 31.3926 15.1734C31.3647 15.4362 31.2576 15.6676 31.1122 15.8841C30.9137 15.9138 30.7482 15.8055 30.5715 15.7505C29.0963 15.2913 27.6116 15.0914 26.1017 15.5829C25.8805 15.6545 25.6646 15.7392 25.4887 15.8981C25.3911 15.9854 25.2875 16.0779 25.3145 16.2272C25.3424 16.3826 25.4782 16.4158 25.6053 16.4489C25.7316 16.4821 25.8587 16.5074 25.9894 16.5197C27.2947 16.6401 28.3675 17.2329 29.2174 18.2038C29.7965 18.8647 30.372 19.543 30.6829 20.3916C30.6873 20.5907 30.6272 20.7836 30.6307 20.9853C30.6385 21.5161 30.8022 21.7047 31.3229 21.7544C31.4222 21.764 31.5215 21.7667 31.6147 21.8077C32.0126 22.1674 32.2947 22.6327 32.6979 22.9915C33.0915 23.3425 33.5043 23.6594 34.0119 23.8174C34.6772 24.0252 35.1527 23.862 35.5724 23.3102C35.6168 23.2526 35.6595 23.195 35.7222 23.1548C35.7796 23.1417 35.8406 23.1408 35.8885 23.1731C36.3265 23.4743 36.7384 23.4534 37.1355 23.0928C37.1982 23.0352 37.2896 23.016 37.3714 23.0815C37.3758 23.284 37.381 23.4874 37.3854 23.69C36.2647 24.8869 34.8923 25.6727 33.3319 26.1284C32.3365 26.4191 31.3099 26.571 30.2745 26.5605C29.5761 26.5536 28.876 26.4567 28.1872 26.31C28.1402 25.9119 27.9582 25.5496 27.8877 25.1576C27.8111 24.7376 27.6177 24.6337 27.1841 24.7691C27.2076 24.9044 27.333 24.8791 27.4175 24.9166C27.4566 24.9341 27.5315 24.9498 27.5307 24.9699C27.4967 25.3863 27.7753 25.7102 27.8537 26.0917C27.8598 26.1223 27.7962 26.1476 27.7501 26.1415H27.7484Z" fill="#DAA472"/>
<path d="M24.8658 31.6243C25.9378 31.9159 27.0254 32.122 28.1391 32.0547C30.3744 31.9203 32.413 31.2297 34.1868 29.8224C35.6305 28.6769 36.7103 27.2713 37.3129 25.5139C37.3338 25.4536 37.4061 25.4109 37.4548 25.3602C37.5149 25.8343 37.3268 26.2813 37.3016 26.7457C37.3547 26.8994 37.2302 27.0155 37.2171 27.1552C36.8 28.2971 36.3864 29.4391 35.6471 30.4265C35.1342 31.1118 34.5864 31.7605 33.8924 32.2721C33.7261 32.2861 33.5859 32.1988 33.4353 32.1543C32.8701 31.9875 32.4565 32.2939 32.4548 32.8745C32.4548 33.029 32.5218 33.1923 32.4182 33.3399C31.9366 33.7546 31.3419 33.9449 30.7654 34.1605C29.5272 34.6241 28.2401 34.8301 26.9174 34.7917C26.7746 34.7874 26.6266 34.7891 26.5195 34.6686C26.5073 34.4495 26.7119 34.4975 26.8199 34.4312C27.0472 34.2915 27.1612 34.116 27.0289 33.8558C26.9087 33.6184 26.5926 33.5162 26.3601 33.6262C26.1259 33.7371 26.0423 34.0042 26.1607 34.2504C26.219 34.3727 26.408 34.4259 26.3479 34.6093C26.1764 34.728 25.9874 34.6974 25.8019 34.6678C23.7921 34.3473 22.0297 33.5101 20.4997 32.1595C19.8867 31.6191 19.3563 31.0141 18.8853 30.3523C18.7851 30.2117 18.671 30.0755 18.6501 29.8931C18.6632 29.7019 18.8095 29.5936 18.9166 29.46C19.1796 29.1327 19.237 28.6708 19.0559 28.3679C18.8661 28.0492 18.5256 27.9305 18.0658 28.0282C17.9291 28.0571 17.7915 28.1461 17.6644 28.0064C17.2752 27.2006 17.1254 26.3328 17.0191 25.4571C16.872 24.2401 17.0322 23.0449 17.3109 21.8602C17.4406 21.0448 17.8194 20.3289 18.1956 19.6104C18.3785 19.9657 18.1399 20.2835 18.0754 20.603C17.7175 22.3788 18.0206 24.0734 18.6345 25.7339C19.1012 26.9972 19.8353 28.1033 20.7453 29.0838C21.2642 29.6434 21.8607 30.1279 22.5373 30.499C22.6331 30.5854 22.6244 30.7068 22.6418 30.8194C22.7881 31.7701 23.611 32.1892 24.4731 31.7544C24.5976 31.6915 24.7056 31.5737 24.8676 31.6243H24.8658Z" fill="#BB733F"/>
<path d="M18.6973 29.8739C20.1785 32.1647 22.2309 33.6716 24.8668 34.3587C25.3492 34.4844 25.8404 34.6223 26.3524 34.5848C26.4133 34.5342 26.4708 34.5412 26.5257 34.5962C26.9576 34.762 27.4113 34.6939 27.8449 34.6599C29.273 34.549 30.6436 34.1937 31.9254 33.5328C32.09 33.4481 32.2546 33.3617 32.4183 33.2752C32.589 33.3224 32.7065 33.4141 32.6917 33.6131C31.4961 34.3945 30.1717 34.8371 28.7836 35.1147C28.6217 35.23 28.4475 35.2719 28.2559 35.202C27.534 35.202 26.8122 35.202 26.0903 35.202C25.8978 35.2719 25.7237 35.23 25.5626 35.1147C24.4158 34.8764 23.302 34.5473 22.2675 33.9772C20.6252 33.0727 19.3382 31.7998 18.3533 30.21C18.3098 30.1401 18.2906 30.0546 18.2593 29.9769C18.3812 29.8424 18.5205 29.7787 18.6964 29.873L18.6973 29.8739Z" fill="#A95E28"/>
<path d="M17.2186 27.6211C15.2158 26.9654 13.9863 25.5956 13.496 23.5518C13.4725 23.454 13.4055 23.3554 13.415 23.2724C13.4777 22.7643 13.3933 22.3583 12.856 22.1305C12.708 22.0676 12.566 21.8895 12.6818 21.6311C12.7201 21.5447 12.5469 21.3386 12.4371 21.2164C12.3292 21.0968 12.2438 20.9693 12.1907 20.8235C12.1202 20.628 12.0087 20.3565 12.2316 20.2569C12.4406 20.1635 12.741 20.1146 12.9553 20.3346C13.0528 20.4359 13.1251 20.5616 13.2095 20.676L13.3158 20.6096C13.3158 20.4883 13.3097 20.3661 13.3166 20.2456C13.3314 20.0029 13.4325 19.7287 13.6589 19.7191C13.9271 19.7078 14.0899 19.9522 14.096 20.2447C14.1003 20.4534 14.096 20.662 14.096 21.0008C14.2867 20.6891 14.4199 20.4935 14.6881 20.4743C14.9964 20.4525 15.1444 20.6131 15.0182 20.8908C14.8518 21.2566 14.6185 21.5927 14.5401 21.9969C14.5148 22.1252 14.4478 22.1933 14.3189 22.2265C13.8173 22.3557 13.8696 22.7599 13.9401 23.1127C14.3059 24.9399 15.3064 26.2678 17.0454 26.9986C17.3379 27.1409 17.3458 27.3626 17.2178 27.6219L17.2186 27.6211Z" fill="#442A19"/>
<path d="M37.1257 27.0867C37.0935 26.926 37.2589 26.8666 37.3007 26.7444C38.0983 26.4563 38.6583 25.8679 39.1224 25.2017C39.6344 24.4675 39.9479 23.6407 39.9923 22.7267C40.0036 22.4892 39.9331 22.3661 39.7032 22.2928C39.4385 22.209 39.2974 22.0151 39.2878 21.7183C39.2791 21.4529 39.0475 21.28 38.9613 21.0434C38.8951 20.8627 38.7297 20.6567 38.97 20.5118C39.1703 20.3913 39.3819 20.4978 39.5656 20.62C39.6588 20.6811 39.6309 20.8444 39.8129 20.8872C39.8129 20.6602 39.8094 20.4515 39.8129 20.2437C39.819 19.9513 39.9819 19.7068 40.2501 19.7182C40.4765 19.7278 40.5792 20.0019 40.5923 20.2455C40.6001 20.3904 40.594 20.5353 40.594 20.7283C40.83 20.4454 41.0373 20.1643 41.4213 20.2167C41.6877 20.2533 41.9002 20.3258 41.7496 20.689C41.6729 20.8723 41.6007 21.0434 41.4848 21.2093C41.3725 21.3691 41.1879 21.4843 41.2567 21.7829C41.3055 21.9942 41.0599 22.2587 40.7873 22.319C40.507 22.3818 40.5096 22.5564 40.5026 22.7817C40.4434 24.7661 39.0466 26.7793 37.1248 27.4463C37.0473 27.3267 37.2415 27.2063 37.1248 27.0858L37.1257 27.0867Z" fill="#442A19"/>
<path d="M25.5626 35.1149C25.7455 35.1035 25.9292 35.0852 26.0903 35.2022C26.0895 36.6374 26.0877 38.0727 26.0868 39.508C26.0868 40.2134 25.9998 40.3758 25.3589 40.567C24.6918 40.7661 24.0205 40.7547 23.3743 40.4483C23.0992 40.3182 22.8806 40.1209 22.8823 39.811C22.8849 39.4583 23.1462 39.2478 23.4475 39.1326C24.1302 38.8707 24.8251 38.8707 25.5618 39.1352V35.1149H25.5626Z" fill="#442A19"/>
<path d="M28.2553 35.2031C28.4173 35.0861 28.601 35.1045 28.7839 35.1158C28.7839 36.4324 28.7839 37.7489 28.7839 39.1179C29.3725 38.9118 29.9455 38.904 30.5298 39.0236C31.0889 39.1379 31.4302 39.4557 31.3841 39.8914C31.3632 40.0931 31.2839 40.2423 31.0819 40.3576C30.293 40.8098 29.4927 40.7732 28.6846 40.4528C28.2623 40.286 28.1674 40.0372 28.2527 39.5457C28.2771 39.4051 28.2588 39.2567 28.2588 39.1118C28.2579 37.8083 28.2571 36.5057 28.2553 35.2023V35.2031Z" fill="#442A19"/>
<path d="M33.1357 16.2021C34.3452 17.0953 35.3283 18.1936 36.0894 19.4909C36.4151 20.0453 36.6781 20.6302 36.8644 21.2475C36.5431 21.4072 36.1948 21.4771 35.8499 21.5618C35.7306 21.5015 35.7115 21.3811 35.6862 21.2702C35.2839 19.5154 34.3522 18.108 32.9258 17.0219C32.857 16.9696 32.79 16.9137 32.7534 16.8299C32.83 16.5898 32.898 16.3445 33.1348 16.2021H33.1357Z" fill="#DAA472"/>
<path d="M24.1892 14.7188C24.8074 15.5709 24.2066 16.8604 22.9614 16.7442C22.3605 16.6945 22.1367 16.2702 21.9922 15.7664C22.0819 15.0243 22.4502 14.5241 23.2017 14.3451C23.6197 14.2456 23.928 14.4132 24.1892 14.7188Z" fill="#67220D"/>
<path d="M35.8219 21.5308C36.1432 21.3388 36.4785 21.1982 36.8651 21.2471C37.6819 21.5527 37.8935 22.1952 37.4198 22.9242C37.3911 22.9687 37.3858 23.029 37.3693 23.0814C37.3162 23.0988 37.2535 23.1032 37.2125 23.1355C36.5638 23.6506 36.3714 23.6549 35.7348 23.1643C35.2298 22.7435 35.2681 22.0215 35.8219 21.5308Z" fill="#67220D"/>
<path d="M18.6971 29.8742C18.5517 29.9092 18.4054 29.9432 18.2599 29.9781C17.4423 29.917 17.06 29.0117 17.5006 28.3167C17.5355 28.1849 17.6008 28.0828 17.7479 28.0583C18.4898 27.6733 19.1107 27.9143 19.2614 28.6581C19.3267 28.9811 19.2204 29.2727 19.0149 29.525C18.9157 29.6473 18.8033 29.759 18.6971 29.8751V29.8742Z" fill="#67220D"/>
<path d="M33.1357 16.2017C33.0112 16.4042 33.0112 16.6827 32.7656 16.812C32.4522 17.1542 31.9933 17.1935 31.523 16.9158C31.1381 16.6889 30.9753 16.2724 31.1103 15.8577C31.099 15.5862 31.2156 15.3679 31.3915 15.1733C31.7547 14.8127 32.7125 14.9314 32.9006 15.4919C32.9799 15.7276 33.1079 15.9476 33.1357 16.2008V16.2017Z" fill="#67220D"/>
<path d="M32.6917 33.6129C32.6002 33.5003 32.5097 33.3877 32.4183 33.2751C32.3199 32.8927 32.2215 32.5172 32.5872 32.2021C33.0374 31.8144 33.4693 32.0205 33.9047 32.2213C34.1189 32.1933 34.1215 32.3575 34.152 32.4954C34.2765 32.835 34.2434 33.1354 33.9883 33.4182C33.66 33.7814 33.2699 33.7622 32.8536 33.6601C32.7988 33.647 32.7457 33.6278 32.6917 33.612V33.6129Z" fill="#67220D"/>
<path d="M34.1521 32.4973C34.058 32.4161 34.0371 32.2694 33.9048 32.2231C34.5143 31.5334 35.2057 30.9223 35.7152 30.1366C36.3334 29.1832 36.8141 28.1775 37.1258 27.0879C37.2826 27.2075 37.1598 27.328 37.1258 27.4485C36.7923 28.8567 36.1375 30.1051 35.278 31.2593C34.941 31.7115 34.4995 32.0608 34.1521 32.4981V32.4973Z" fill="#A95E28"/>
<path d="M17.7475 28.0582C17.6648 28.1446 17.5829 28.2302 17.5002 28.3166C17.4062 28.0853 17.3121 27.853 17.2181 27.6217C17.2033 27.4017 17.1763 27.186 17.0456 26.9983C16.929 26.031 16.8018 25.0602 16.8863 24.0867C16.9516 23.3342 16.9873 22.5685 17.3095 21.8613C17.2233 22.6017 17.0848 23.3411 17.0631 24.0832C17.0221 25.4478 17.3217 26.767 17.7475 28.0582Z" fill="#A95E28"/>
<path d="M24.8658 31.6238C24.5201 31.8796 24.1605 32.1258 23.7051 32.0332C22.8064 31.8507 22.5008 31.4361 22.5365 30.4984C22.9057 29.669 23.5797 29.4874 24.4478 29.8576C25.2194 30.1867 25.3282 30.7498 24.8667 31.6238H24.8658Z" fill="#67220D"/>
<path d="M23.9175 23.3581C24.1875 23.1189 24.4766 22.8509 24.8554 23.05C25.2429 23.2534 25.4135 23.6262 25.3909 24.0723C25.3778 24.3255 25.444 24.5865 25.3195 24.8292C25.1967 25.0012 25.0731 25.1741 24.9503 25.3461C24.3877 25.6132 23.9454 25.4124 23.8139 24.831C23.6746 24.3272 23.7329 23.8383 23.9184 23.3581H23.9175Z" fill="#442A19"/>
<path d="M21.1364 24.6512C20.6748 24.7377 20.2168 24.859 19.7971 24.4967C19.4671 24.2112 19.3957 23.8437 19.5193 23.4779C19.6604 23.0588 20.0165 22.8083 20.4554 22.7463C21.0658 22.6598 21.4455 22.8467 21.6109 23.2631C21.7903 23.7145 21.6458 24.1693 21.2034 24.5517C21.1721 24.5788 21.1547 24.6216 21.1311 24.6565L21.1364 24.6512Z" fill="#67220D"/>
<path d="M23.8141 24.8311C24.0336 25.3566 24.469 25.402 24.9505 25.3462C25.2004 25.6919 24.9592 25.8988 24.7067 26.035C24.1581 26.3318 23.5808 26.3109 23.0113 26.0717C22.764 25.9678 22.6037 25.767 22.6255 25.5024C22.6455 25.2571 22.8502 25.0982 23.067 25.017C23.3056 24.928 23.5642 24.8904 23.8133 24.8311H23.8141Z" fill="#E97573"/>
<path d="M32.9783 29.1861C32.4689 29.1844 32.0866 28.8491 32.084 28.4021C32.0805 27.8556 32.5568 27.4383 33.1795 27.4444C33.6723 27.4488 33.9963 27.7831 33.9928 28.2817C33.9884 28.8421 33.6 29.1879 32.9783 29.1861Z" fill="#67220D"/>
<path d="M19.6986 20.911C19.1735 20.911 18.8034 20.5967 18.7913 20.1409C18.7782 19.6328 19.3129 19.1588 19.8867 19.1701C20.3526 19.1789 20.6983 19.5281 20.7 19.9925C20.7018 20.5626 20.3212 20.9118 19.6977 20.9118L19.6986 20.911Z" fill="#67220D"/>
<path d="M27.7483 26.1419C27.9303 25.8782 27.7248 25.7709 27.5419 25.7124C27.2641 25.6233 27.2659 25.522 27.4514 25.3317C27.6455 25.1335 27.6255 25 27.3129 25.0052C27.1492 25.0078 26.9611 25.0104 26.9672 24.7869C26.9733 24.532 27.1893 24.5704 27.3573 24.5704C27.7988 24.5704 27.9799 24.7372 27.9947 25.1798C27.9991 25.316 28.0209 25.4461 28.0957 25.5456C28.2777 25.7883 28.2682 26.0424 28.1872 26.3113C27.946 26.6308 27.6273 26.7914 27.2293 26.7347C27.1013 26.7164 26.9454 26.6683 26.9594 26.4684C26.9742 26.2571 27.1335 26.3148 27.2467 26.3156C27.4383 26.3174 27.6125 26.2912 27.7492 26.1419H27.7483Z" fill="#442A19"/>
<path d="M23.3559 29.5339C22.9675 29.5348 22.7925 29.3419 22.7821 28.9499C22.7716 28.5666 23.0172 28.4365 23.3193 28.4121C23.6703 28.3832 23.9907 28.6862 23.9994 28.9979C24.009 29.3183 23.7512 29.5331 23.3559 29.5339Z" fill="#67220D"/>
<path d="M29.0181 30.3181C28.6454 30.3137 28.4033 30.0876 28.4373 29.7375C28.4738 29.3586 28.7333 29.2643 29.0782 29.2687C29.4421 29.2731 29.652 29.4084 29.6485 29.796C29.6459 30.1479 29.436 30.3233 29.0181 30.319V30.3181Z" fill="#67220D"/>
<path d="M21.301 24.6527C21.5884 24.458 21.8452 24.582 21.9759 24.8212C22.0847 25.0194 22.0063 25.2848 21.7503 25.3852C21.4577 25.5004 21.2244 25.4254 21.126 25.0927C21.4891 25.0115 21.5135 24.9495 21.301 24.6518V24.6527Z" fill="#67220D"/>
<path d="M21.301 24.6532C21.4063 24.6759 21.5927 24.6061 21.5996 24.7274C21.6092 24.8889 21.5535 25.0932 21.4499 25.2128C21.3445 25.3351 21.247 25.1116 21.1259 25.0941C20.9317 24.9422 21.186 24.8008 21.1364 24.6523L21.1312 24.6576C21.1878 24.6558 21.2444 24.655 21.3018 24.6532H21.301Z" fill="#50140C"/>
<path d="M31.1114 15.8582C31.0653 16.8202 32.0388 17.2655 32.7668 16.8124C33.7386 17.3851 34.4335 18.2276 34.9899 19.1827C35.4123 19.9073 35.7493 20.6756 35.8224 21.5312C35.4941 22.0594 35.3391 22.5972 35.7353 23.1647C35.5786 23.8369 34.7566 24.2263 33.9511 23.9198C32.9418 23.5366 32.2112 22.7954 31.6496 21.883C31.728 21.7145 31.9091 21.6604 32.0319 21.5399C32.3183 21.2588 32.4185 20.7341 32.2435 20.3779C32.0484 19.9815 31.6104 19.8794 31.1619 20.1011C30.9739 20.1937 30.8615 20.4312 30.6081 20.3962C29.8288 19.0282 28.9676 17.7422 27.4802 17.0298C26.869 16.7373 26.2141 16.6587 25.5619 16.5627C25.3729 16.5348 25.2188 16.4876 25.1526 16.3025C25.0795 16.1 25.2232 15.9778 25.3503 15.8582C25.7387 15.4941 26.242 15.371 26.7322 15.2898C28.2431 15.0392 29.7077 15.2392 31.1123 15.8573L31.1114 15.8582Z" fill="#E4B281"/>
<path d="M29.3949 25.3454C28.666 24.6286 28.828 23.9206 29.1206 23.3697C29.2564 23.1139 29.4611 22.9943 29.745 23.0013C30.0253 23.0082 30.2047 23.1401 30.3615 23.3837C30.6602 23.8499 30.621 24.3283 30.5104 24.8251C30.3571 25.4048 29.933 25.6029 29.3958 25.3454H29.3949Z" fill="#442A19"/>
<path d="M29.3949 25.3455C29.8965 25.452 30.2596 25.2591 30.5096 24.8252C30.7995 24.8933 31.1113 24.8785 31.3725 25.0487C31.5676 25.1753 31.7522 25.3141 31.7321 25.59C31.713 25.8563 31.5249 26.0352 31.3237 26.1016C30.7725 26.2841 30.1987 26.3478 29.6605 26.0492C29.3932 25.9008 29.206 25.6851 29.3941 25.3455H29.3949Z" fill="#E97573"/>
<path d="M30.6072 20.3971C30.8676 20.1823 31.1027 19.9222 31.4597 19.868C31.8716 19.8061 32.2399 20.02 32.3871 20.3919C32.5743 20.8659 32.3871 21.4797 31.9613 21.7556C31.869 21.8158 31.754 21.8411 31.6495 21.883C31.4144 21.8219 31.1636 21.9372 30.932 21.8018C30.4862 21.5434 30.3869 21.1322 30.6081 20.3962L30.6072 20.3971Z" fill="#67220D"/>
<path d="M23.6126 19.2557C23.1921 19.2565 22.943 19.0479 22.963 18.6838C22.9822 18.3364 23.2417 18.1766 23.5317 18.1373C23.8721 18.0919 24.1795 18.3983 24.1752 18.7065C24.17 19.0662 23.9775 19.2539 23.6118 19.2548L23.6126 19.2557Z" fill="#67220D"/>
<path d="M26.5247 34.5964C26.4672 34.5929 26.4089 34.5885 26.3514 34.585C25.9708 34.2891 25.8724 33.8988 26.1154 33.6456C26.3792 33.3706 26.7755 33.4003 27.0741 33.6989C27.2309 33.8552 27.2474 34.0245 27.1821 34.2149C27.0733 34.5283 26.8155 34.5929 26.5247 34.5973V34.5964Z" fill="#67220D"/>
<path d="M22.6969 14.8389C22.8928 14.8974 22.8815 15.0563 22.8693 15.1968C22.8441 15.4762 22.9146 15.6848 23.2133 15.7591C23.4188 15.8106 23.6583 15.8953 23.6147 16.1318C23.5616 16.42 23.2621 16.5457 23.0104 16.5326C22.6064 16.5116 22.3799 16.2288 22.2972 15.8324C22.2197 15.4631 22.2937 15.1436 22.5881 14.893C22.6185 14.8668 22.663 14.8563 22.6978 14.8397L22.6969 14.8389Z" fill="#4D120C"/>
<path d="M37.4594 22.3198C37.4289 22.4551 37.4001 22.58 37.374 22.7057C37.3505 22.8157 37.2922 22.8943 37.1764 22.8995C37.037 22.9056 36.9595 22.8174 36.9543 22.6882C36.9378 22.3224 36.7514 22.1609 36.3909 22.1172C36.1375 22.0867 36.0922 21.8309 36.2786 21.6301C36.5616 21.3263 37.1015 21.4075 37.2948 21.7977C37.3758 21.9618 37.408 22.1504 37.4602 22.3198H37.4594Z" fill="#4D120C"/>
<path d="M19.0431 28.963C19.0431 28.963 19.0492 29.0529 19.0413 29.1385C19.0326 29.2284 18.9926 29.3096 18.8924 29.3227C18.7871 29.3367 18.7313 29.2607 18.7139 29.1734C18.6486 28.8521 18.4666 28.7133 18.134 28.7352C18.0147 28.743 17.8562 28.6854 17.8536 28.5248C17.851 28.379 17.9276 28.2463 18.0573 28.1633C18.2515 28.0385 18.4527 28.0114 18.6686 28.1232C18.9813 28.2847 19.0718 28.5518 19.0439 28.963H19.0431Z" fill="#4D120C"/>
<path d="M32.0804 15.1592C32.1823 15.1924 32.3591 15.222 32.5027 15.3067C32.629 15.3818 32.8154 15.4927 32.7431 15.6725C32.6699 15.8559 32.5019 15.7432 32.3686 15.7048C32.1466 15.642 32.0081 15.7572 31.9123 15.9397C31.8288 16.0968 31.7469 16.2915 31.5318 16.1728C31.3246 16.0584 31.2479 15.8471 31.3394 15.6123C31.4569 15.3093 31.6877 15.1627 32.0795 15.1592H32.0804Z" fill="#4D120C"/>
<path d="M32.5166 32.9075C32.5123 32.4308 32.8501 32.106 33.2507 32.147C33.3378 32.1558 33.4335 32.1514 33.4536 32.2623C33.471 32.3592 33.4144 32.4352 33.3334 32.4718C33.0939 32.5809 33.1026 32.787 33.1375 32.9887C33.1645 33.1476 33.2489 33.3239 33.0025 33.351C32.7918 33.3737 32.6011 33.3003 32.5288 33.0699C32.5079 33.0035 32.5184 32.9267 32.5175 32.9066L32.5166 32.9075Z" fill="#4D120C"/>
<path d="M22.7856 30.8924C22.7864 30.2603 23.3594 29.7828 23.9211 29.8823C24.0108 29.898 24.0987 29.9181 24.1335 30.0045C24.1806 30.1224 24.0944 30.2071 24.0099 30.2507C23.6398 30.4437 23.4909 30.7038 23.6442 31.1273C23.6999 31.2818 23.6738 31.5097 23.436 31.5219C23.1339 31.5376 22.9266 31.3534 22.8021 31.0888C22.7682 31.0164 22.7873 30.9186 22.7856 30.8915V30.8924Z" fill="#4D120C"/>
<path d="M24.6981 23.7028C24.6885 23.8966 24.7547 24.1411 24.429 24.1315C24.159 24.1236 24.1016 23.9001 24.1016 23.7133C24.1016 23.5134 24.1434 23.2663 24.4403 23.2637C24.7677 23.2611 24.6824 23.5143 24.6981 23.702V23.7028Z" fill="#FEFEFE"/>
<path d="M20.2996 24.4799C19.9417 24.4676 19.7553 24.2415 19.7449 23.8268C19.7344 23.4017 20.0375 22.9398 20.3449 22.9337C20.5896 22.9285 20.5591 23.117 20.4798 23.2323C20.2874 23.5117 20.3153 23.7378 20.5643 23.9552C20.6671 24.0451 20.7428 24.1551 20.6514 24.2957C20.566 24.4257 20.4467 24.4973 20.2996 24.479V24.4799Z" fill="#4D120C"/>
<path d="M32.3441 28.4015C32.3198 28.1893 32.372 27.9964 32.5166 27.8427C32.6341 27.7179 32.7943 27.5642 32.9589 27.6576C33.1305 27.7545 32.9685 27.9161 32.9128 28.0322C32.8361 28.1893 32.8971 28.3133 32.9711 28.4364C33.0512 28.57 33.2027 28.7044 33.0765 28.8572C32.9676 28.9882 32.7769 28.9349 32.6271 28.9078C32.4573 28.8773 32.3581 28.7524 32.345 28.5735C32.3407 28.5158 32.345 28.4582 32.345 28.4015H32.3441Z" fill="#4D120C"/>
<path d="M19.05 20.1309C19.0326 19.7966 19.1501 19.539 19.4689 19.3967C19.549 19.3609 19.6326 19.3199 19.704 19.4037C19.758 19.4674 19.7371 19.5443 19.6979 19.6054C19.5385 19.8568 19.5359 20.0794 19.7658 20.3012C19.8616 20.3937 19.8868 20.5762 19.7257 20.6225C19.508 20.6845 19.2634 20.7072 19.1031 20.4671C19.0335 20.3632 19.0552 20.2444 19.05 20.1309Z" fill="#4D120C"/>
<path d="M23.5312 28.6143C23.4267 28.7828 23.2795 28.8919 23.3021 29.0901C23.3135 29.1879 23.2899 29.3118 23.1558 29.3022C23.0244 29.2926 22.919 29.2202 22.8807 29.0735C22.7919 28.7374 23.0836 28.5104 23.5312 28.6143Z" fill="#4D120C"/>
<path d="M28.6066 29.7777C28.5909 29.6345 28.6475 29.5071 28.7781 29.4198C28.8939 29.343 29.0402 29.3141 29.1421 29.4006C29.2562 29.4975 29.1151 29.5726 29.0602 29.6442C29.0132 29.7061 28.9967 29.7629 29.0158 29.8423C29.0585 30.0196 28.9853 30.1409 28.8007 30.1252C28.6126 30.1086 28.6057 29.9436 28.6066 29.7777Z" fill="#4D120C"/>
<path d="M33.2313 18.9952C33.6649 18.9987 33.9183 19.2038 33.9035 19.5373C33.8896 19.8534 33.6336 20.0454 33.2348 20.0402C32.8986 20.035 32.613 19.7818 32.6061 19.4823C32.6 19.1995 32.8656 18.9917 33.2313 18.9952Z" fill="#67220D"/>
<path d="M29.9095 23.7033C29.9313 23.9364 29.8286 24.1241 29.6013 24.1206C29.374 24.1172 29.2965 23.9242 29.2974 23.6937C29.2974 23.4615 29.3827 23.2729 29.6109 23.2764C29.8381 23.2799 29.933 23.4728 29.9104 23.7033H29.9095Z" fill="#FEFEFE"/>
<path d="M31.4038 21.6977C30.9692 21.6995 30.8081 21.4742 30.7254 21.208C30.6331 20.9111 30.6854 20.6117 30.8804 20.3559C30.924 20.2982 31.0136 20.2895 31.0737 20.3445C31.1486 20.4126 31.2165 20.4999 31.1808 20.6073C31.0911 20.8771 31.3019 20.9652 31.463 21.0648C31.5979 21.1486 31.847 21.1224 31.7939 21.3695C31.7416 21.6113 31.5413 21.7003 31.4038 21.6969V21.6977Z" fill="#4D120C"/>
<path d="M23.1339 18.7178C23.1286 18.5048 23.2209 18.3712 23.4038 18.3136C23.497 18.2839 23.6172 18.2647 23.6851 18.3467C23.7547 18.4306 23.6607 18.4995 23.6076 18.5624C23.5614 18.6165 23.5144 18.6672 23.537 18.7501C23.5806 18.909 23.5632 19.0618 23.362 19.0461C23.1774 19.0321 23.1086 18.8837 23.1347 18.7178H23.1339Z" fill="#4D120C"/>
<path d="M26.3904 34.3218C26.1962 34.3087 26.1179 34.2398 26.0943 34.1097C26.0569 33.9002 26.1388 33.7482 26.319 33.6435C26.434 33.5771 26.548 33.5239 26.6743 33.6234C26.7335 33.6697 26.7396 33.7334 26.6839 33.7605C26.4479 33.8748 26.6308 34.2529 26.3904 34.3227V34.3218Z" fill="#4D120C"/>
<path d="M33.4925 19.1421C33.2888 19.3027 33.1808 19.4442 33.2069 19.6519C33.2174 19.7384 33.1982 19.8327 33.0876 19.8484C32.9927 19.8615 32.9265 19.7986 32.8682 19.7331C32.7489 19.5978 32.7393 19.4354 32.8177 19.2905C32.9527 19.0408 33.1782 19.0487 33.4925 19.1421Z" fill="#4D120C"/>
<defs>
<filter id="filter0_b_326_1272" x="-4" y="-4" width="63" height="63" filterUnits="userSpaceOnUse" color-interpolation-filters="sRGB">
<feFlood flood-opacity="0" result="BackgroundImageFix"/>
<feGaussianBlur in="BackgroundImageFix" stdDeviation="2"/>
<feComposite in2="SourceAlpha" operator="in" result="effect1_backgroundBlur_326_1272"/>
<feBlend mode="normal" in="SourceGraphic" in2="effect1_backgroundBlur_326_1272" result="shape"/>
</filter>
</defs>
</svg>
