<svg width="279" height="65" viewBox="0 0 279 65" fill="none" xmlns="http://www.w3.org/2000/svg">
<path d="M20.4545 41.6292C25.0149 41.6292 28.234 39.6172 30.6483 34.8557L35.0745 38.5442C31.7213 44.58 26.155 48.1344 19.1132 48.1344C9.25484 48.1344 2.01192 41.2268 2.01192 31.3013C2.01192 21.51 8.31594 14.3341 18.9791 14.3341C29.5752 14.3341 34.2697 21.4429 30.9836 29.3564L24.6796 27.6128C26.9597 24.5949 25.7526 19.9004 19.1132 19.9004C12.0045 19.9004 8.91952 25.3326 8.91952 31.3013C8.91952 37.3371 13.7481 41.6292 20.4545 41.6292ZM52.0946 48.1344C41.5656 48.1344 34.1214 41.1597 34.1214 31.033C34.1214 20.9064 41.5656 14.3341 52.0946 14.3341C62.5566 14.3341 70.1348 20.9064 70.1348 31.033C70.1348 41.1597 62.5566 48.1344 52.0946 48.1344ZM52.0946 42.501C59.2034 42.501 63.1602 37.4041 63.1602 31.033C63.1602 24.662 59.2705 19.9675 52.0946 19.9675C44.9188 19.9675 41.029 24.662 41.029 31.033C41.029 37.3371 44.9858 42.501 52.0946 42.501ZM88.0682 48.1344C77.5391 48.1344 70.095 41.1597 70.095 31.033C70.095 20.9064 77.5391 14.3341 88.0682 14.3341C98.5302 14.3341 106.108 20.9064 106.108 31.033C106.108 41.1597 98.5302 48.1344 88.0682 48.1344ZM88.0682 42.501C95.177 42.501 99.1337 37.4041 99.1337 31.033C99.1337 24.662 95.244 19.9675 88.0682 19.9675C80.8923 19.9675 77.0026 24.662 77.0026 31.033C77.0026 37.3371 80.9594 42.501 88.0682 42.501Z" fill="black"/>
<path d="M162.648 34.8557L167.074 38.5442C163.721 44.58 158.155 48.2685 151.113 48.2685C141.322 48.2685 134.012 41.0256 134.012 31.033C134.012 21.51 140.584 14.3341 151.18 14.3341C160.234 14.3341 165.13 19.6322 165.13 24.9973C165.13 33.8497 151.717 35.3922 141.456 35.5934C143.133 39.416 147.022 41.8304 152.119 41.8304C156.948 41.8304 160.234 39.6843 162.648 34.8557ZM140.584 29.6918C147.626 29.6918 157.686 29.3564 157.686 24.3937C157.686 22.2477 155.741 19.9675 151.046 19.9675C144.608 19.9675 141.054 24.2596 140.584 29.6918ZM193.72 26.8751C193.72 22.8512 190.233 20.0345 185.069 20.0345C181.045 20.0345 177.759 21.7111 174.205 24.1925L171.992 18.9615C176.083 16.279 180.777 14.4682 186.276 14.4682C194.592 14.4682 199.957 18.6262 199.957 26.4056V48.0002H193.653L193.385 40.9585C191.708 45.3847 187.148 48.1344 179.57 48.1344C171.321 48.1344 167.431 44.9153 167.431 38.7454C167.431 30.6307 174.138 29.2223 180.911 29.2223C184.264 29.2223 187.618 29.5576 190.099 29.5576C191.776 29.5576 193.05 29.4235 193.72 28.9541V26.8751ZM181.984 43.0375C188.489 43.0375 193.653 38.7454 193.653 34.7216V34.1851C191.038 34.7886 185.874 33.8497 181.515 33.8497C177.558 33.8497 174.339 34.6545 174.339 38.0077C174.339 41.9645 178.698 43.0375 181.984 43.0375ZM228.723 21.577L223.559 25.6679C223.357 22.7171 219.602 20.0345 215.109 20.0345C212.493 20.0345 208.134 20.9734 208.134 23.9243C208.134 30.4295 228.991 24.3937 228.991 37.0017C228.991 44.647 221.413 48.0002 214.773 48.0002C208.134 48.0002 202.299 44.58 200.623 39.349L206.189 35.8617C206.927 39.8184 210.28 42.2327 215.042 42.2327C218.328 42.2327 222.888 41.0926 222.888 38.0077C222.888 31.5025 202.098 37.4712 202.098 24.729C202.098 17.419 208.939 14.3341 215.578 14.3341C221.144 14.3341 226.577 16.5472 228.723 21.577ZM258.322 34.8557L262.748 38.5442C259.395 44.58 253.829 48.2685 246.787 48.2685C236.996 48.2685 229.686 41.0256 229.686 31.033C229.686 21.51 236.258 14.3341 246.854 14.3341C255.908 14.3341 260.803 19.6322 260.803 24.9973C260.803 33.8497 247.39 35.3922 237.13 35.5934C238.806 39.416 242.696 41.8304 247.793 41.8304C252.621 41.8304 255.908 39.6843 258.322 34.8557ZM236.258 29.6918C243.3 29.6918 253.359 29.3564 253.359 24.3937C253.359 22.2477 251.414 19.9675 246.72 19.9675C240.282 19.9675 236.727 24.2596 236.258 29.6918Z" fill="black"/>
<path d="M113.566 34.5634C125.323 31.6194 128.633 28.2615 128.633 16.9571" stroke="black" stroke-width="6.28725"/>
<path d="M111.719 2.8269V48.2581" stroke="black" stroke-width="6.28725"/>
<path d="M128.076 48.0443L116.409 32.915L120.87 28.9683L135.969 48.0443H128.076Z" fill="#070707"/>
</svg>
