<svg width="189" height="44" viewBox="0 0 189 44" fill="none" xmlns="http://www.w3.org/2000/svg">
<path d="M109.69 23.1263L112.678 25.6164C110.415 29.691 106.657 32.1811 101.903 32.1811C95.2931 32.1811 90.3582 27.2915 90.3582 20.5457C90.3582 14.1167 94.7951 9.27241 101.948 9.27241C108.06 9.27241 111.365 12.8491 111.365 16.471C111.365 22.4472 102.311 23.4885 95.3836 23.6243C96.5155 26.2049 99.1414 27.8348 102.582 27.8348C105.842 27.8348 108.06 26.386 109.69 23.1263ZM94.7951 19.6402C99.5489 19.6402 106.34 19.4138 106.34 16.0635C106.34 14.6148 105.027 13.0754 101.858 13.0754C97.5115 13.0754 95.112 15.973 94.7951 19.6402ZM130.667 17.7387C130.667 15.0222 128.312 13.1207 124.826 13.1207C122.11 13.1207 119.891 14.2526 117.492 15.9277L115.998 12.3963C118.76 10.5854 121.929 9.36296 125.641 9.36296C131.255 9.36296 134.877 12.17 134.877 17.4217V32H130.621L130.44 27.2462C129.308 30.2343 126.23 32.0905 121.114 32.0905C115.545 32.0905 112.919 29.9174 112.919 25.7522C112.919 20.274 117.447 19.3233 122.019 19.3233C124.283 19.3233 126.547 19.5496 128.222 19.5496C129.354 19.5496 130.214 19.4591 130.667 19.1422V17.7387ZM122.744 28.6497C127.135 28.6497 130.621 25.7522 130.621 23.0357V22.6735C128.856 23.081 125.37 22.4472 122.427 22.4472C119.756 22.4472 117.582 22.9905 117.582 25.2542C117.582 27.9253 120.525 28.6497 122.744 28.6497ZM154.296 14.162L150.81 16.9237C150.674 14.9317 148.139 13.1207 145.106 13.1207C143.34 13.1207 140.397 13.7545 140.397 15.7466C140.397 20.1382 154.477 16.0635 154.477 24.5751C154.477 29.7363 149.361 32 144.879 32C140.397 32 136.458 29.691 135.326 26.1596L139.084 23.8054C139.582 26.4766 141.846 28.1064 145.06 28.1064C147.279 28.1064 150.357 27.3368 150.357 25.2542C150.357 20.8626 136.322 24.892 136.322 16.2899C136.322 11.355 140.94 9.27241 145.422 9.27241C149.18 9.27241 152.847 10.7665 154.296 14.162ZM174.278 23.1263L177.266 25.6164C175.003 29.691 171.245 32.1811 166.491 32.1811C159.881 32.1811 154.946 27.2915 154.946 20.5457C154.946 14.1167 159.383 9.27241 166.536 9.27241C172.648 9.27241 175.953 12.8491 175.953 16.471C175.953 22.4472 166.899 23.4885 159.972 23.6243C161.104 26.2049 163.729 27.8348 167.17 27.8348C170.43 27.8348 172.648 26.386 174.278 23.1263ZM159.383 19.6402C164.137 19.6402 170.928 19.4138 170.928 16.0635C170.928 14.6148 169.615 13.0754 166.446 13.0754C162.1 13.0754 159.7 15.973 159.383 19.6402Z" fill="black"/>
<path d="M13.8086 27.699C16.8872 27.699 19.0604 26.3407 20.6903 23.1263L23.6783 25.6164C21.4146 29.691 17.6569 32.0905 12.9031 32.0905C6.24782 32.0905 1.35822 27.4273 1.35822 20.7268C1.35822 14.1167 5.61399 9.27241 12.8126 9.27241C19.9659 9.27241 23.1351 14.0715 20.9166 19.4138L16.6609 18.2367C18.2002 16.1993 17.3852 13.0302 12.9031 13.0302C8.10406 13.0302 6.02145 16.6974 6.02145 20.7268C6.02145 24.8014 9.28119 27.699 13.8086 27.699ZM35.1684 32.0905C28.0604 32.0905 23.035 27.382 23.035 20.5457C23.035 13.7093 28.0604 9.27241 35.1684 9.27241C42.2312 9.27241 47.3471 13.7093 47.3471 20.5457C47.3471 27.382 42.2312 32.0905 35.1684 32.0905ZM35.1684 28.2875C39.9675 28.2875 42.6386 24.8467 42.6386 20.5457C42.6386 16.2446 40.0127 13.0754 35.1684 13.0754C30.3241 13.0754 27.6982 16.2446 27.6982 20.5457C27.6982 24.8014 30.3694 28.2875 35.1684 28.2875ZM59.4537 32.0905C52.3457 32.0905 47.3203 27.382 47.3203 20.5457C47.3203 13.7093 52.3457 9.27241 59.4537 9.27241C66.5165 9.27241 71.6324 13.7093 71.6324 20.5457C71.6324 27.382 66.5165 32.0905 59.4537 32.0905ZM59.4537 28.2875C64.2528 28.2875 66.9239 24.8467 66.9239 20.5457C66.9239 16.2446 64.298 13.0754 59.4537 13.0754C54.6094 13.0754 51.9835 16.2446 51.9835 20.5457C51.9835 24.8014 54.6547 28.2875 59.4537 28.2875Z" fill="black"/>
<path d="M76.6678 23.3329C84.6048 21.3455 86.8393 19.0786 86.8393 11.4472" stroke="black" stroke-width="4.24444"/>
<path d="M75.4209 1.90796V32.578" stroke="black" stroke-width="4.24444"/>
<path d="M86.4626 32.4337L78.5859 22.2201L81.5976 19.5557L91.7909 32.4337H86.4626Z" fill="#070707"/>
</svg>
