<svg width="23" height="23" viewBox="0 0 23 23" fill="none" xmlns="http://www.w3.org/2000/svg">
<g clip-path="url(#clip0_326_1246)">
<path d="M21.0736 9.59292V18.2083C21.0736 20.8533 18.9269 23 16.2819 23H6.70817C5.43359 23 4.22609 22.5017 3.31567 21.6008C2.41484 20.7 1.9165 19.4925 1.9165 18.2083V9.58333C1.9165 6.93833 4.06317 4.79167 6.70817 4.79167H7.6665C8.19359 4.79167 8.62484 5.22292 8.62484 5.75C8.62484 6.27708 8.19359 6.70833 7.6665 6.70833H6.70817C5.12692 6.70833 3.83317 8.00208 3.83317 9.58333V18.2083C3.83317 18.975 4.13025 19.7033 4.6765 20.24C5.22275 20.7863 5.9415 21.0833 6.70817 21.0833H16.2819C17.8632 21.0833 19.1569 19.7896 19.1569 18.2083V9.59292C19.1569 8.82625 18.8598 8.09792 18.3136 7.56125C17.7673 7.02458 17.0486 6.71792 16.2819 6.71792H15.3332C14.8061 6.71792 14.3748 6.28667 14.3748 5.75958C14.3748 5.2325 14.8061 4.80125 15.3332 4.80125H16.2819H16.2915C17.5661 4.80125 18.7736 5.29958 19.6744 6.20042C20.5848 7.10125 21.0832 8.30875 21.0832 9.59292H21.0736ZM7.36942 11.7683C6.98609 11.4042 6.38234 11.4137 6.01817 11.7971C5.654 12.1804 5.66359 12.7842 6.0565 13.1483L9.47775 16.4067C10.0432 16.9721 10.7811 17.25 11.519 17.25C12.2569 17.25 12.9757 16.9721 13.5315 16.4258L16.9719 13.1579C17.3553 12.7937 17.3744 12.19 17.0103 11.8067C16.6461 11.4233 16.0423 11.4042 15.659 11.7779L12.4869 14.7967V0.958333C12.4869 0.43125 12.0557 0 11.5286 0C11.0015 0 10.5703 0.43125 10.5703 0.958333V14.7871L7.39817 11.7683H7.36942Z" fill="#070707"/>
</g>
<defs>
<clipPath id="clip0_326_1246">
<rect width="23" height="23" fill="white"/>
</clipPath>
</defs>
</svg>
