<svg width="55" height="55" viewBox="0 0 55 55" fill="none" xmlns="http://www.w3.org/2000/svg">
<circle cx="27.5" cy="27.5" r="26.5" stroke="black" stroke-width="2"/>
<path d="M36.9081 24.0092C35.9997 22.8835 34.6298 22.2305 33.1833 22.2335H31.4067L31.4852 21.7732C31.805 19.8982 30.5443 18.1189 28.6692 17.799C28.4629 17.7638 28.2538 17.7475 28.0446 17.7503C26.7298 17.7435 25.5236 18.4788 24.9273 19.6506L23.6093 22.2335H21.7944C19.1477 22.2364 17.0029 24.3813 17 27.028V31.3865C17.0029 34.0332 19.1477 36.1781 21.7944 36.1809H32.2619C34.5243 36.1727 36.476 34.591 36.9526 32.3794L37.874 28.0208C38.1763 26.6064 37.8211 25.1311 36.9081 24.0092ZM19.6151 31.3865V27.028C19.6151 25.8244 20.5908 24.8487 21.7944 24.8487H23.102V33.5658H21.7944C20.5908 33.5658 19.6151 32.5901 19.6151 31.3865ZM35.3155 27.4795L34.3932 31.8381C34.1769 32.8432 33.29 33.5622 32.2619 33.5658H25.7171V23.8558L27.2565 20.8388C27.4197 20.5334 27.744 20.3492 28.0899 20.3655C28.5482 20.3657 28.9195 20.7376 28.9192 21.1959C28.9192 21.2421 28.9153 21.2883 28.9076 21.3339L28.3087 24.8487H33.1833C34.3869 24.8486 35.3627 25.8242 35.3628 27.0277C35.3628 27.1796 35.3469 27.3309 35.3155 27.4795Z" fill="black" fill-opacity="0.9"/>
</svg>
