<svg width="53" height="53" viewBox="0 0 53 53" fill="none" xmlns="http://www.w3.org/2000/svg">
<path d="M14.1235 22.375C14.1235 20.9163 14.703 19.5174 15.7344 18.4859C16.7659 17.4545 18.1648 16.875 19.6235 16.875H33.3735C34.8323 16.875 36.2312 17.4545 37.2626 18.4859C38.2941 19.5174 38.8735 20.9163 38.8735 22.375V30.625C38.8735 32.0837 38.2941 33.4827 37.2626 34.514C36.2312 35.5456 34.8323 36.125 33.3735 36.125H19.6235C18.1648 36.125 16.7659 35.5456 15.7344 34.514C14.703 33.4827 14.1235 32.0837 14.1235 30.625V22.375Z" fill="#070707"/>
<path d="M23.7485 22.375L30.6235 26.5L23.7485 30.625V22.375Z" fill="white"/>
</svg>
