<svg width="53" height="53" viewBox="0 0 53 53" fill="none" xmlns="http://www.w3.org/2000/svg">
<path d="M15.4985 21C15.4985 19.5413 16.078 18.1424 17.1094 17.1109C18.1409 16.0795 19.5398 15.5 20.9985 15.5H31.9985C33.4573 15.5 34.8562 16.0795 35.8876 17.1109C36.9191 18.1424 37.4985 19.5413 37.4985 21V32C37.4985 33.4587 36.9191 34.8577 35.8876 35.889C34.8562 36.9206 33.4573 37.5 31.9985 37.5H20.9985C19.5398 37.5 18.1409 36.9206 17.1094 35.889C16.078 34.8577 15.4985 33.4587 15.4985 32V21Z" fill="#070707"/>
<path d="M22.3735 26.5C22.3735 27.5939 22.8081 28.6432 23.5817 29.4168C24.3553 30.1904 25.4046 30.625 26.4985 30.625C27.5925 30.625 28.6417 30.1904 29.4153 29.4168C30.1889 28.6432 30.6235 27.5939 30.6235 26.5C30.6235 25.4061 30.1889 24.3568 29.4153 23.5832C28.6417 22.8096 27.5925 22.375 26.4985 22.375C25.4046 22.375 24.3553 22.8096 23.5817 23.5832C22.8081 24.3568 22.3735 25.4061 22.3735 26.5Z" stroke="white" stroke-width="2" stroke-linecap="round" stroke-linejoin="round"/>
<path d="M32.686 20.3125V20.3254" stroke="white" stroke-width="2" stroke-linecap="round" stroke-linejoin="round"/>
</svg>
