<svg width="53" height="53" viewBox="0 0 53 53" fill="none" xmlns="http://www.w3.org/2000/svg">
<path d="M26.5105 14C19.6008 14 13.9985 19.5923 13.9985 26.4898C13.9985 31.7827 17.2932 36.3064 21.9473 38.1256C21.8343 37.1384 21.7417 35.6169 21.988 34.5391C22.2139 33.563 23.4511 28.3311 23.4511 28.3311C23.4511 28.3311 23.0807 27.5806 23.0807 26.4806C23.0807 24.7428 24.09 23.4487 25.3456 23.4487C26.4161 23.4487 26.9309 24.2511 26.9309 25.2068C26.9309 26.2754 26.2513 27.8801 25.8901 29.3701C25.592 30.6143 26.5179 31.6311 27.744 31.6311C29.9682 31.6311 31.6776 29.2869 31.6776 25.9167C31.6776 22.9255 29.5256 20.8383 26.4457 20.8383C22.8825 20.8383 20.7935 23.5005 20.7935 26.255C20.7935 27.3236 21.2046 28.4753 21.7195 29.102C21.8232 29.2259 21.8324 29.3387 21.8009 29.4625C21.7083 29.8526 21.4917 30.7067 21.4509 30.8805C21.3991 31.106 21.2657 31.1578 21.0287 31.045C19.4637 30.3148 18.4859 28.0427 18.4859 26.2033C18.4859 22.2655 21.3491 18.6476 26.755 18.6476C31.0905 18.6476 34.4685 21.7313 34.4685 25.8631C34.4685 29.995 31.7498 33.6332 27.981 33.6332C26.7143 33.6332 25.5197 32.9751 25.1178 32.1949C25.1178 32.1949 24.49 34.5798 24.3345 35.1658C24.0567 36.2547 23.2936 37.6116 22.7788 38.4454C23.9529 38.8059 25.1882 39 26.4865 39C33.3962 39 38.9985 33.4077 38.9985 26.5102C39.0207 19.5923 33.4184 14 26.5105 14Z" fill="#070707"/>
</svg>
