<svg width="305" height="230" viewBox="0 0 305 230" fill="none" xmlns="http://www.w3.org/2000/svg">
<g clip-path="url(#clip0_175_5384)">
<path d="M264.538 138.362C264.439 140.744 264.412 143.135 263.545 145.411C263.998 146.027 264.017 146.674 263.717 147.353C262.318 148.852 260.867 150.306 259.467 151.805C255.207 156.363 250.021 159.059 243.679 157.454C235.296 155.329 229.433 158.283 225.038 165.391C222.709 169.156 220.742 173.093 218.713 177.003C213.151 187.686 204.753 195.483 194.149 200.916C184.837 205.691 178.097 204.764 170.303 197.668C167.225 194.869 164.011 192.387 160.33 190.511C159.726 189.813 159.577 188.961 159.463 188.083C158.615 181.606 157.112 179.799 151.711 178.746C146.532 177.739 142.8 179.477 139.964 184.21C139.666 184.712 139.465 185.268 139.202 185.787C138.369 187.39 138.055 189.291 136.456 190.433C122.328 194.117 108.248 197.553 93.6656 192.195C78.7479 186.709 71.5457 176.626 74.4334 161.129C76.198 151.67 73.7253 143.226 67.0141 135.912C61.8866 130.326 56.4216 124.815 54.0363 117.258C53.8949 114.12 54.3839 110.866 52.2805 108.095C52.0725 107.694 51.9267 107.276 51.8254 106.832C49.9164 90.9178 59.9986 71.4461 78.0171 62.1551C79.2023 61.5485 80.4396 61.0311 81.7316 61.9229C83.0377 63.9133 82.4871 66.3609 83.3667 68.4617C85.185 74.4798 89.5579 77.0988 95.3066 75.6053C101.571 73.9848 104.882 68.7427 103.625 62.3943C103.204 61.3087 102.906 60.1803 102.609 59.0518C101.421 54.4671 98.9814 52.4637 94.2893 52.1976C93.0056 52.1209 91.6625 52.6017 90.4675 51.7376C89.7277 50.5863 90.2455 49.4583 90.5505 48.3456C95.5964 30.0389 106.03 16.2142 123.627 8.20299C128.845 5.82639 133.951 3.21818 139.566 1.82943C143.907 1.83469 148.256 1.88434 152.597 1.8276C155.362 1.78828 156.862 2.24836 155.107 5.46178C154.239 7.0376 154.048 8.99322 153.549 10.777C151.989 23.2944 156.423 32.9568 167.28 39.5477C168.388 40.2248 169.694 40.656 170.317 41.9477C168.635 45.0025 165.938 43.7669 163.73 43.1836C158.916 41.9327 155.098 38.8682 151.521 35.5497C149.154 33.3522 147.039 30.8919 144.681 28.668C138.975 23.2787 133.065 22.6266 126.146 26.5429C119.922 30.0685 117.047 36.7153 118.791 43.8488C119.451 46.5583 120.208 49.2423 121.188 51.8668C122.633 55.7192 123.97 59.6323 124.677 63.6977C125.949 71.003 123.869 76.9767 117.688 81.4507C113.472 84.5031 108.701 86.4419 104.113 88.7371C99.8897 90.8505 95.7887 93.1246 92.297 96.3448C83.6125 104.36 81.8848 113.687 87.0706 124.261C87.841 125.838 88.9587 127.259 89.2928 129.035C89.3719 130.639 88.9289 132.193 88.9106 133.797C88.8175 141.175 93.6598 144.588 100.634 142.027C103.633 141.628 105.24 139.041 107.577 137.598C113.231 136.643 118.91 135.796 124.589 134.992C138.263 133.049 145.762 138.06 149.472 151.382C150.655 155.63 151.287 160.022 153.11 164.1C156.867 172.515 164.17 176.186 173.251 174.491C178.108 173.581 182.171 170.686 186.906 169.571C187.366 169.576 187.808 169.705 188.204 169.94C188.72 170.495 188.925 171.189 189.094 171.917C190.395 177.442 193.59 179.994 198.54 179.449C204.217 178.831 207.953 175.127 208.172 169.876C208.233 168.406 208.206 166.935 208.196 165.473C208.327 161.736 205.949 159.796 203.035 158.203C201.653 157.443 199.961 157.38 198.734 156.267C198.651 153.449 199.545 151.165 202.253 149.876C203.449 150.634 203.529 152.105 204.306 153.133C205.144 154.232 206.143 155.156 207.604 154.455C208.807 153.875 209.113 152.7 208.728 151.474C208.266 150.024 207.173 149.525 205.666 149.667C204.468 149.786 203.206 150.941 202.053 149.537C201.927 144.229 205.792 140.942 208.92 137.771C214.925 131.692 222.389 129.686 230.779 132.732C234.811 134.195 238.425 136.487 242.176 138.505C248.577 141.953 254.901 142.885 261.328 138.626C262.31 137.973 263.397 137.41 264.564 138.353L264.538 138.362Z" fill="#D5975E"/>
<path d="M88.6696 129.294C81.4596 118.333 80.9909 108.175 87.5736 99.5865C91.2965 94.7389 96.3392 91.4567 101.722 88.639C106.9 85.9253 112.459 83.969 117.196 80.3378C122.826 76.0258 125.246 70.4813 123.404 63.4175C121.859 57.4822 119.96 51.6314 118.033 45.8069C114.283 34.4336 121.259 24.7597 133.08 22.9103C138.111 22.1261 142.17 24.3872 145.628 27.9348C149.919 32.3511 153.931 37.0921 159.397 40.1576C162.733 42.0295 166.141 43.8047 170.122 41.9544C171.354 41.118 172.715 41.3993 173.961 41.7236C179.658 43.1972 185.1 42.1431 190.282 39.8635C193.639 38.387 195.989 38.9365 198.457 41.6046C204.574 48.1945 212.315 50.6482 221.191 49.8813C225.776 49.4819 226.705 50.3429 226.076 55.0221C223.559 73.7474 238.208 85.7057 255.248 85.3244C258.498 84.6351 260.283 85.754 261.272 89.1493C265.833 104.811 265.996 120.811 265.298 136.9C265.275 137.396 264.809 137.878 264.546 138.362C260.728 139.94 257.498 142.693 252.918 142.738C246.3 142.805 241.21 139.354 235.92 136.334C227.55 131.561 219.215 130.633 211.436 136.994C207.34 140.349 203.776 144.507 202.437 149.984C201.236 152.026 200.034 154.059 198.824 156.091C198.345 156.901 197.544 157.29 196.717 157.529C191.509 159.02 188.627 162.371 188.281 167.833C188.226 168.727 187.854 169.511 187.227 170.168C183.229 171.965 179.464 174.296 175.12 175.31C163.013 178.122 154.8 173.59 150.975 161.79C149.811 158.189 148.754 154.527 147.999 150.825C145.291 137.452 135.664 134.835 124.167 136.246C118.543 136.934 113.031 138.59 107.285 138.312C106.291 137.68 106.241 136.634 106.102 135.623C104.945 127.566 100.491 125.061 92.978 128.253C91.5478 128.591 90.3461 129.88 88.6872 129.303L88.6696 129.294Z" fill="#E1A573"/>
<path d="M54.4173 116.447C58.2054 124.508 64.2275 130.884 69.9719 137.523C76.0749 144.573 77.3315 153.225 75.6282 161.975C72.89 176.012 79.3426 185.033 91.8535 190.261C102.813 194.833 114.013 194.607 125.356 191.919C129.043 191.049 132.805 190.533 136.533 189.858C137.606 190.553 137.805 191.769 138.262 192.819C140.135 197.12 143.361 199.398 148.099 199.531C152.677 199.663 155.976 197.85 157.673 193.457C158.388 192.128 158.84 190.565 160.582 190.133C163.929 190.278 166.421 192.299 168.487 194.484C179.971 206.628 188.861 203.93 201.712 194.899C210.392 188.806 216.227 180.51 220.526 171.018C222.362 166.964 224.91 163.37 227.712 160.009C231.52 155.454 236.889 154.674 242.206 156.028C249.591 157.902 255.03 155.599 259.516 149.865C260.487 148.618 261.503 147.257 263.339 147.118C264.314 149.371 263.542 151.081 261.701 152.477C260.678 157.479 258.835 162.153 256.269 166.562C255.592 166.918 255.082 166.567 254.581 166.162C252.001 163.263 248.876 162.359 245.521 164.438C242.666 166.203 240.468 168.632 241.894 172.493C242.336 176.476 245.745 178.198 248.153 180.67C243.641 189.416 236.321 195.826 229.049 201.935C218.88 210.474 207.185 216.781 194.53 221.075C193.72 221.349 192.843 221.419 191.999 221.586C191.57 221.138 191.515 220.562 191.397 219.976C190.374 214.95 188.365 213.244 184.168 213.807C179.537 214.428 177.188 217.617 177.743 222.584C177.855 223.595 178.269 224.592 177.762 225.596C167.699 227.04 157.608 228.688 147.419 227.987C127.511 226.626 108.399 222.324 91.2027 211.577C91.4654 210.295 92.5704 209.723 93.4471 208.971C95.5943 207.126 97.0009 204.972 96.0334 202.029C95.1602 199.37 93.0587 197.991 90.4129 197.73C87.5016 197.44 84.8529 198.207 83.1307 200.854C82.3462 202.059 82.1332 203.651 80.6807 204.396C65.6129 193.443 54.811 178.959 46.5206 162.538C40.7944 151.195 37.5941 138.978 35.7442 126.422C35.555 125.144 35.8274 123.791 35.8778 122.481C36.5902 122.152 37.2882 122.32 37.9854 122.549C45.4875 124.991 48.119 124.18 52.8853 117.944C53.326 117.365 53.7316 116.758 54.426 116.456L54.4173 116.447Z" fill="#BB733F"/>
<path d="M139.565 1.8382C138.132 4.00996 135.562 4.1135 133.479 4.97561C123.136 9.26922 113.561 14.5992 105.322 22.3984C99.4917 27.9129 97.0366 35.0073 94.1659 42.0261C92.8903 45.1299 91.7204 48.2791 90.5064 51.4102C86.6994 54.3167 83.2784 57.5465 81.3752 62.0782C66.8285 68.3348 57.8881 79.3594 53.729 94.487C52.5458 98.7966 52.7262 103.175 52.7559 107.56C51.3674 108.129 50.9915 106.911 50.3885 106.187C46.2646 101.152 44.2867 100.589 38.2111 102.779C37.5173 103.028 36.8406 103.33 36.0905 103.074C36.2071 92.8608 39.1074 83.2466 42.4495 73.7261C48.1269 57.5262 57.5421 43.7076 69.4285 31.4764C70.4145 30.4689 71.2188 29.0784 72.9545 29.1336C74.7473 31.1739 76.1338 33.8828 79.6998 32.6833C83.4615 31.424 84.7849 28.0196 82.6703 24.6823C82.1308 23.8256 81.1539 23.2652 80.9805 22.1559C94.9037 11.5426 110.811 5.59385 127.888 2.72366C131.669 2.08469 135.606 0.986851 139.574 1.8383L139.565 1.8382Z" fill="#BB733F"/>
<path d="M261.701 152.477C262.244 150.694 262.796 148.911 263.339 147.118C263.407 146.543 263.485 145.968 263.553 145.402C272.931 141.868 279.045 134.763 283.959 126.474C289.08 117.842 290.11 108.304 289.655 98.4917C289.607 97.3306 289.884 96.2796 288.008 96.1253C284.645 95.8654 282.286 94.4919 281.525 90.5765C281.156 88.712 278.62 87.3719 277.525 85.5256C276.699 84.1254 275.215 82.2126 276.686 80.6614C278.291 78.9788 280.515 78.9334 282.508 80.471C283.044 80.8846 283.588 81.3072 284.537 82.0356C284.567 79.3783 284.805 77.2017 284.563 75.0817C284.297 72.7665 285.539 71.8594 287.359 71.5169C289.347 71.141 290.375 71.888 291.014 74.1632C291.541 76.0561 291.459 77.8712 291.786 80.2048C293.181 78.3515 294.193 76.6002 295.599 75.252C297.167 73.7373 299.328 72.2471 301.364 73.927C302.97 75.2564 303.938 77.3847 302.599 79.7702C301.84 81.1169 301.362 82.6351 300.805 84.0905C300.22 85.6075 299.1 86.7552 300.077 88.8748C301.062 91.0122 299.282 93.304 297.35 94.1678C295.044 95.1957 294.938 96.7005 294.951 98.685C295.002 106.65 295.159 114.624 292.06 122.225C286.208 136.607 276.652 147.235 261.71 152.486L261.701 152.477Z" fill="#442A19"/>
<path d="M33.9613 119.66C21.9466 127.611 15.9219 139.315 13.4085 153.062C12.8606 156.05 12.9834 159.258 13.4274 162.275C13.723 164.316 13.6865 167.514 17.6655 166.611C18.4738 166.426 20.4792 167.689 20.4641 168.238C20.3064 172.736 25.1546 174.076 26.2023 177.747C26.5941 179.125 27.8259 180.636 26.9264 181.83C25.865 183.236 23.9249 182.46 22.4036 182.248C21.3601 182.094 20.3938 181.375 19.3364 180.884C18.5675 184.605 20.5851 190.227 15.5819 190.825C10.5787 191.424 13.0334 185.144 10.66 182.752C9.13102 184.763 8.31094 187.535 5.06596 188.544C1.77649 189.569 0.853255 188.186 0.573471 185.534C0.373265 183.671 0.439293 181.767 1.57467 180.088C3.00741 177.969 4.11261 175.829 3.39146 173.039C2.93348 171.254 3.88881 169.05 5.34713 168.57C8.94843 167.389 8.15668 165.351 8.02165 162.435C7.26176 145.967 12.1401 131.476 24.4518 120.012C26.6277 117.981 29.1712 116.336 31.5396 114.512C33.956 115.469 34.1635 117.474 33.9613 119.66Z" fill="#442A19"/>
<path d="M255.248 85.3244C248.598 87.348 242.366 85.3811 237.1 81.8749C227.165 75.2414 222.577 65.8252 225.401 53.6235C225.942 51.282 224.91 50.1098 222.592 50.5705C211.991 52.6908 203.446 49.218 196.575 41.1578C195.036 39.3508 193.511 39.546 191.613 40.5165C184.671 44.0694 177.49 44.5721 170.113 41.9631C157.692 38.1715 149.076 22.3221 153.531 10.7857C152.556 27.1722 166.796 36.8757 180.194 36.6211C183.499 36.5614 186.712 35.9603 189.741 34.4711C194.454 32.1508 197.91 32.8458 200.732 37.0948C205.94 44.9323 212.907 49.2109 222.491 48.6027C226.817 48.3332 227.613 50.7785 227.412 54.4083C226.538 70.3973 240.528 83.4111 255.23 85.333L255.248 85.3244Z" fill="#7F3618"/>
<path d="M33.9611 119.66C33.1568 117.941 32.3436 116.231 31.5394 114.512C31.3956 110.036 32.8038 106.181 36.0817 103.065C42.9061 98.1375 46.9245 99.2199 52.7471 107.552L52.693 107.631C54.3687 112.947 52.7471 117.642 48.067 120.972C43.8872 123.946 39.618 123.879 35.6316 120.768L33.961 119.669L33.9611 119.66Z" fill="#7F3618"/>
<path d="M177.753 225.596C174.213 220.577 177.235 214.26 182.301 212.891C185.135 212.126 187.953 212.043 190.234 214.036C192.497 216.011 192.811 218.734 191.999 221.577C189.177 228.995 183.809 230.502 177.762 225.587L177.753 225.596Z" fill="#7F3618"/>
<path d="M248.144 180.67C243.841 179.664 241.454 176.98 241.017 172.572C240.537 168.775 242.349 166.058 245.512 164.473C248.871 162.784 252.276 163.257 255.296 165.648C255.621 165.953 255.945 166.266 256.26 166.571C258.394 176.021 256.448 178.86 248.144 180.679L248.144 180.67Z" fill="#7F3618"/>
<path d="M80.663 204.396C82.6294 197.438 87.5515 194.623 93.1028 197.229C95.808 198.5 97.5937 200.381 97.5396 203.57C97.4641 207.857 94.6317 209.968 91.185 211.576C83.1894 211.237 81.7039 210.219 80.6631 204.387L80.663 204.396Z" fill="#7F3618"/>
<path d="M80.9716 22.156C84.5098 23.3924 85.3834 26.0245 84.654 29.3914C83.859 33.0676 80.9229 34.1769 77.761 34.1231C74.8913 34.0726 72.8011 32.4807 72.9367 29.1336C73.3926 27.996 72.312 26.4334 73.916 25.6101C74.7346 26.0713 74.5899 27.1061 75.1764 27.7241C76.2793 26.5584 76.3823 25.2928 75.645 23.9201C77.0465 22.2087 79.0134 22.1868 80.9716 22.156Z" fill="#7F3618"/>
<path d="M35.6315 120.768C46.0275 124.244 52.4892 119.269 52.7018 107.631C55.2328 110.193 56.0414 113.081 54.4171 116.456C51.343 125.005 44.523 127.222 35.8688 122.49C35.7867 121.922 35.7135 121.345 35.6314 120.777L35.6315 120.768Z" fill="#9F5927"/>
<path d="M75.6451 23.9199C76.9803 24.1389 79.1294 23.6762 77.4254 26.2701C76.5059 27.6682 75.7446 29.1743 74.6868 31.0403C73.4872 29.0334 74.1187 27.26 73.9159 25.6188C74.4893 25.0584 75.0716 24.4892 75.645 23.9288L75.6451 23.9199Z" fill="#68230E"/>
<path d="M81.3753 62.0784C81.7169 56.2089 85.3747 53.1855 90.5065 51.4103C98.4359 50.5707 102.881 51.4807 104.583 62.2636C105.145 70.4733 96.6546 76.232 86.554 73.2642C84.4262 72.6375 83.4108 70.7921 82.3768 69.0263C81.2858 66.8168 81.5169 64.4187 81.3842 62.0785L81.3753 62.0784Z" fill="#7F3618"/>
<path d="M209.262 165.193C209.503 170.467 209.807 175.617 204.066 178.776C199.921 181.059 196.064 181.378 191.819 179.204C187.926 177.21 188.001 173.756 187.97 170.239C187.488 164.36 190.698 160.206 196.314 159.473C203.119 158.585 206.283 159.977 209.271 165.184L209.262 165.193Z" fill="#7F3618"/>
<path d="M160.573 190.142C159.913 191.321 159.253 192.492 158.593 193.672C153.109 200.67 142.561 199.637 138.487 191.75C137.378 189.602 137.756 187.56 138.338 185.45C141.181 175.41 152.823 176.03 158.178 180.343C161.426 182.958 160.231 186.772 160.564 190.151L160.573 190.142Z" fill="#7F3618"/>
<path d="M92.233 127.545C95.621 124.873 99.3738 125.164 102.871 126.887C106.131 128.492 107.576 131.485 107.187 135.237C107.079 136.245 107.235 137.275 107.276 138.303C106.049 141.053 104.107 142.794 100.927 142.775C95.6336 143.946 92.6696 142.849 90.5703 138.945C88.3147 134.764 88.8909 130.855 92.233 127.545Z" fill="#7F3618"/>
<path d="M82.3682 69.026C91.1755 76.6388 99.0873 74.231 104.575 62.2633C106.477 68.7165 102.83 74.6192 95.6756 76.6548C89.2676 78.4774 84.1717 75.5578 82.3682 69.026Z" fill="#B57040"/>
<path d="M209.262 165.193C206.347 162.13 203.162 160.189 198.544 160.473C192.196 160.861 188.682 163.736 187.97 170.247C187.722 170.2 187.466 170.18 187.218 170.168C186.417 161.141 191.668 156.709 198.815 156.1C205.257 156.749 208.599 159.666 209.262 165.193Z" fill="#B57040"/>
<path d="M138.338 185.441C137.96 190.61 140.424 194.35 144.911 196.271C149.804 198.355 154.631 197.675 158.593 193.672C156.295 199.35 153.067 201.236 146.66 200.631C141.085 200.107 137.61 196.418 136.533 189.867C137.135 188.395 137.736 186.922 138.338 185.45L138.338 185.441Z" fill="#9F5927"/>
<path d="M104.107 168.396C102.32 165.089 102.884 162.172 105.982 160.134C108.347 158.575 110.502 159.938 112.174 161.684C114.336 163.95 114.652 166.54 112.709 169.176C110.792 171.776 107.922 171.797 104.948 169.247C105.256 168.612 106.438 169.042 106.422 168.13C106.417 167.784 105.925 167.398 105.546 167.26C104.558 166.921 104.756 168.208 104.116 168.387L104.107 168.396Z" fill="#7F3618"/>
<path d="M92.2329 127.545C87.7745 136.291 91.179 142.265 100.927 142.775C94.7026 146.336 88.1247 142.868 87.7543 135.732C87.6461 133.57 87.3532 131.29 88.6694 129.294C89.9062 128.821 90.6584 127.341 92.224 127.545L92.2329 127.545Z" fill="#B57040"/>
<path d="M86.3664 78.8431C89.5638 78.8973 91.027 80.3137 90.9946 83.157C90.9664 85.6283 89.5497 87.1181 87.205 86.861C84.6391 86.5837 83.0391 84.7316 83.1224 82.0927C83.1813 80.0381 84.2179 78.4731 86.3664 78.8431Z" fill="#7F3618"/>
<path d="M202.428 149.984C206.358 147.239 209.011 147.588 210.053 150.975C210.711 153.109 209.806 154.826 208.19 155.861C206.405 157.01 205.003 155.71 203.653 154.428C202.277 153.119 202.437 151.57 202.419 149.984L202.42 149.975L202.428 149.984Z" fill="#7F3618"/>
<path d="M82.9487 135.341C80.4312 135.481 79.6646 134.338 79.6603 132.389C79.6556 130.475 80.3956 129.288 82.4515 129.223C84.1797 129.163 85.8254 129.341 85.9417 131.566C86.0572 133.87 84.6625 134.98 82.9575 135.341L82.9487 135.341Z" fill="#7F3618"/>
<path d="M104.107 168.395C104.18 167.422 104.253 166.448 104.379 164.784C106.281 166.551 107.754 167.914 109.279 169.34C107.508 170.782 106.306 168.996 104.948 169.255C104.668 168.969 104.387 168.682 104.107 168.395Z" fill="#68230D"/>
<path d="M212.137 74.0245C212.874 81.6338 217.612 86.4274 223.845 89.8383C229.611 92.9958 235.74 95.502 241.542 98.6068C248.093 102.119 252.66 107.185 252.32 115.225C252.09 120.573 247.548 123.489 242.243 122.604C237.521 121.815 234.454 118.104 230.156 116.717C229.709 116.242 229.601 115.674 229.661 115.046C229.701 114.639 229.785 114.25 229.887 113.853C230.268 110.721 230.48 107.667 227.243 105.681C225.07 104.345 222.866 104.223 220.542 105.206C218.522 106.06 217.973 108.357 216.268 109.507C207.609 109.851 202.551 115.215 198.556 122.132C194.815 128.61 192.711 135.938 188.318 142.081C184.114 147.95 178.543 149.393 173.685 145.803C171.05 143.859 170.235 140.749 169.116 137.91C168.039 135.187 167.381 132.31 166.403 129.543C165.064 125.745 163.27 122.252 159.385 120.383C155.096 116.604 150.157 115.449 144.615 116.688C139.839 116.785 135.349 115.892 131.45 112.933C130.751 112.056 130.807 110.985 131.013 110.04C132.04 105.409 129.632 101.404 128.787 97.1158C130.385 92.1288 133.726 88.1539 136.591 83.9344C140.213 78.6073 141.833 73.2928 139.079 66.9893C137.68 63.7931 136.985 60.277 136.129 56.8655C135.18 53.0985 134.348 49.1469 138.18 46.4444C141.886 43.8379 146.024 44.5407 149.886 46.0996C154.507 47.9684 157.751 51.7084 161.014 55.2981C166.079 60.8838 172.259 63.5234 179.82 63.1579C182.399 63.0279 184.694 62.2479 186.999 61.2732C190.099 61.344 193.165 61.3259 194.85 57.9965C197.682 56.6912 200.552 55.9355 203.612 57.2195C203.731 58.3991 202.833 58.6635 202.015 58.9907C197.491 60.2325 195.241 63.3428 195.84 67.5664C196.512 72.3224 199.799 74.6012 205.886 74.5113C207.994 74.5176 209.955 72.724 212.164 73.9894L212.137 74.0245Z" fill="#E9B28A"/>
<path d="M128.76 97.1332C132.869 101.866 133.029 107.254 131.423 112.95C130.449 114.392 129.485 115.825 128.512 117.266C124.358 121.09 119.265 119.455 117.205 113.638C116.95 109.649 115.409 105.733 117.227 101.644C119.591 96.3198 123.205 94.7665 128.76 97.1244L128.76 97.1332Z" fill="#442A19"/>
<path d="M158.344 137.043C155.956 140.657 153.056 143.219 148.307 141.73C143.549 140.232 141.027 136.128 140.869 129.783C142.732 126.491 145.005 123.665 149.271 123.997C153.086 124.297 156.745 128.184 158.021 132.743C158.43 134.192 158.13 135.623 158.335 137.052L158.344 137.043Z" fill="#E97573"/>
<path d="M158.344 137.043C157.537 134.819 156.899 132.509 155.878 130.38C152.962 124.331 148.002 123.433 143.238 127.923C142.513 128.606 141.665 129.163 140.869 129.774C140.252 124.886 142.098 120.699 144.597 116.706C150.846 114.058 154.011 113.146 159.367 120.4C160.516 126.039 161.303 131.655 158.344 137.043Z" fill="#442A19"/>
<path d="M117.214 113.638C121.763 118.695 123.466 119.246 128.521 117.267C128.574 123.477 126.179 126.09 120.014 126.037C116.842 126.01 113.493 126.84 110.534 125.291C108.121 124.032 105.26 122.467 105.767 119.204C106.302 115.773 109.382 114.461 112.42 113.743C113.939 113.379 115.619 113.655 117.223 113.638L117.214 113.638Z" fill="#E97573"/>
<path d="M201.784 58.2085C202.477 58.057 203.282 58.1193 203.593 57.2458C213.232 58.038 216.846 65.8219 212.137 74.0245C210.093 74.577 208.04 75.1382 205.996 75.6907C198.409 74.4879 196.244 71.6638 196.968 64.1509C197.269 61.0272 198.596 58.9074 201.784 58.2085Z" fill="#7F3618"/>
<path d="M216.25 109.524C218.392 104.269 222.242 102.222 226.642 104.009C231.077 105.814 232.31 109.548 230.29 115.044C228.563 113.439 229.582 111.103 228.584 109.302C229.022 111.238 227.995 113.574 230.317 115.009C230.266 115.584 230.206 116.151 230.156 116.726C227.592 119.319 224.657 120.322 221.194 118.705C217.282 116.889 215.946 113.631 216.259 109.516L216.25 109.524Z" fill="#823A1B"/>
<path d="M146.381 32.6296C149.091 35.0259 148.82 37.831 146.922 40.3607C144.574 43.4876 140.531 43.8047 137.49 41.6173C134.609 39.538 134.103 36.5114 135.551 33.826C137.171 30.8236 139.881 28.569 143.797 30.8727C143.291 31.6642 142.378 31.7778 141.3 32.3147C143.163 32.8498 144.756 32.992 146.39 32.6298L146.381 32.6296Z" fill="#833B1B"/>
<path d="M194.832 58.0316C194.217 63.0121 192.695 63.6503 186.981 61.3084C187.274 56.6342 190.576 55.2545 194.832 58.0316Z" fill="#883F1F"/>
<path d="M146.381 32.6297C144.121 36.5638 141.39 32.1032 138.359 33.7872C139.787 30.5789 141.891 30.9396 143.787 30.8726C145 30.9485 145.826 31.5869 146.381 32.6297Z" fill="#68230E"/>
<path d="M133.16 195.135C135.727 195.289 137.601 196.444 137.228 198.876C136.845 201.352 136.199 204.445 132.909 204.682C130.418 204.857 129.359 202.914 129.493 200.524C129.646 197.974 129.932 195.426 133.16 195.135Z" fill="#843B1A"/>
<path d="M49.6596 132.79C49.8849 134.786 48.6141 135.914 46.671 136.176C44.0359 136.527 40.8915 133.381 40.9764 130.601C41.035 128.573 42.1574 127.257 44.17 127.111C46.3954 126.951 49.5735 130.247 49.6597 132.782L49.6596 132.79Z" fill="#833A1A"/>
<path d="M255.296 165.648C246.792 163.283 243.808 164.728 241.016 172.581C239.811 168.775 241.303 165.302 245.003 163.254C248.729 161.188 252.219 161.998 255.296 165.657L255.296 165.648Z" fill="#9F5927"/>
<path d="M33.5043 111.557C33.541 111.443 33.751 110.896 33.8902 110.339C34.4643 108.167 34.5415 104.509 37.3057 105.258C40.2908 106.063 37.5385 108.928 37.1716 110.802C36.8892 112.261 36.6339 113.666 36.759 115.129C36.8364 116.105 37.5662 117.362 36.0832 117.673C34.5203 118.001 34.2164 116.686 34.0444 115.462C33.8892 114.308 33.7163 113.163 33.4954 111.557L33.5043 111.557Z" fill="#67220D"/>
<path d="M190.963 219.253C191.18 221.178 190.67 222.395 189.949 223.485C189.164 224.681 188.117 226.396 186.612 225.511C184.597 224.328 186.436 223.091 187.289 222.091C187.981 221.275 188.318 220.41 188.463 219.367C188.599 218.349 188.966 217.193 190.318 217.554C191.395 217.85 190.93 219.005 190.971 219.253L190.963 219.253Z" fill="#67220D"/>
<path d="M256.111 171.876C255.881 172.617 255.585 173.739 255.2 174.833C254.587 176.571 253.483 178.579 251.555 177.564C249.635 176.55 251.777 175.157 252.313 173.959C252.723 173.033 253.15 172.099 253.409 171.119C253.668 170.147 253.595 168.764 254.949 168.939C256.178 169.095 256.083 170.44 256.111 171.876Z" fill="#67220D"/>
<path d="M90.8145 198.266C91.2909 198.44 92.262 198.735 93.1783 199.17C93.8039 199.47 94.5968 199.851 94.2585 200.777C93.9748 201.571 93.1838 201.793 92.4404 201.731C91.2987 201.638 90.1678 201.368 89.0266 201.231C87.5051 201.037 85.8807 203.649 84.5523 201.286C83.988 200.279 87.9722 198.145 90.8145 198.266Z" fill="#67220D"/>
<path d="M83.1739 62.843C82.8902 58.9773 85.3019 56.4623 88.3022 54.3882C89.0076 53.9002 90.0648 52.858 90.981 54.0821C91.5396 54.8149 91.4298 55.9033 90.8375 56.5698C88.4867 59.1741 85.7846 61.5174 85.3777 65.3486C85.3477 65.6494 84.2695 66.1952 83.9878 66.0414C82.7549 65.3984 82.635 64.2631 83.1827 62.8431L83.1739 62.843Z" fill="#67220D"/>
<path d="M208.119 169.902C207.378 171.887 206.983 173.937 205.46 175.461C203.802 177.126 201.628 179.705 199.657 177.84C197.763 176.047 201.17 174.845 202.249 173.44C203.301 172.062 204.722 171.024 205.168 169.177C205.373 168.32 206.186 167.709 207.217 168.182C207.957 168.518 208.242 169.177 208.119 169.893L208.119 169.902Z" fill="#67220D"/>
<path d="M149.587 178.562C151.305 178.661 152.954 178.538 153.085 180.241C153.215 182.04 151.593 182.146 150.264 182.095C147.457 181.992 145.279 183.429 143.075 184.848C142.317 185.336 141.469 185.866 140.752 185.043C140.017 184.211 140.772 183.289 141.257 182.719C143.52 180.034 146.554 178.837 149.596 178.562L149.587 178.562Z" fill="#67220D"/>
<path d="M105.306 131.672C104.942 133.306 103.909 133.02 102.729 132.369C100.933 131.383 99.1458 130.397 97.3226 129.472C96.6181 129.11 95.293 129.555 95.3073 128.306C95.322 127.013 96.4846 126.832 97.5576 126.737C100.333 126.477 105.374 129.573 105.306 131.672Z" fill="#67220D"/>
<path d="M179.936 126.703C176.946 127.121 174.153 126.496 171.612 124.81C168.166 122.538 168.099 118.259 171.666 116.235C177.007 113.205 182.679 113.739 188.158 115.724C190.364 116.52 192.092 118.736 191.967 121.189C191.843 123.482 189.675 124.848 187.715 125.818C185.301 127.022 182.617 126.973 179.945 126.695L179.936 126.703Z" fill="#E97573"/>
<path d="M165.352 71.8073C168.793 75.3104 168.157 79.0947 165.9 82.7985C163.598 86.5726 159.695 86.2003 156.13 85.7433C153.45 85.4026 151.976 83.3837 151.875 80.5743C150.741 76.7078 151.337 73.3482 154.864 70.97C157.908 68.923 161.846 69.2868 165.352 71.8162L165.352 71.8073Z" fill="#7F3618"/>
<path d="M176.529 98.458C182.703 98.5284 187.829 103.486 187.841 109.368C187.843 110.759 187.204 111.611 185.821 111.764C184.605 111.9 183.445 111.923 183.385 110.141C183.357 109.468 182.807 108.824 182.646 108.131C181.911 105.039 179.602 103.162 176.831 103.059C173.634 102.943 170.937 104.843 170.331 108.309C169.98 110.289 169.651 111.942 167.264 111.534C164.373 111.049 165.845 108.612 165.931 107.249C166.216 102.477 171.365 98.3902 176.529 98.4491L176.529 98.458Z" fill="#442A19"/>
<path d="M201.784 58.2084C197.221 60.6191 197.933 64.9415 198.172 68.8863C198.455 73.5936 202.556 74.3669 205.996 75.6906C201.516 76.295 197.926 74.9341 195.66 70.8598C193.846 67.6144 194.298 64.4836 196.062 61.288C197.373 58.9288 199.191 57.9574 201.784 58.2084Z" fill="#B57040"/>
<path d="M165.352 71.8072C156.941 69.0269 151.204 71.8937 151.875 80.5741C149.796 75.7224 150.859 71.81 154.908 69.4644C158.885 67.1533 162.773 68.0305 165.343 71.8159L165.352 71.8072Z" fill="#B57040"/>
<path d="M126.039 101.904C126.243 104.962 125.01 106.596 122.956 106.555C120.405 106.508 120.044 103.997 120.013 102.065C119.987 100.452 120.37 98.6851 122.886 98.6784C125.872 98.6682 125.848 100.705 126.039 101.904Z" fill="#FEFEFE"/>
<path d="M212.277 64.0511C212.209 65.3171 212.35 66.1603 211.611 66.5505C210.817 66.9667 210.231 66.3399 209.768 65.803C208.745 64.5954 207.847 63.2829 206.78 62.1191C206.063 61.3313 204.143 61.0614 204.921 59.6971C205.716 58.3154 207.239 59.1744 208.384 59.7721C210.365 60.8135 211.961 62.196 212.268 64.051L212.277 64.0511Z" fill="#67220D"/>
<path d="M230.317 115.018C228.642 115.796 227.517 115.766 227.588 113.428C227.642 111.834 227.838 110.224 227.191 108.657C226.872 107.892 226.477 106.806 227.755 106.564C228.794 106.363 229.128 107.412 229.553 108.161C230.813 110.355 230.068 112.756 230.29 115.053L230.316 115.027L230.317 115.018Z" fill="#67220D"/>
<path d="M165.49 73.6869C166.599 78.2087 166.256 81.0573 163.723 83.3583C163.052 83.9707 162.232 84.36 161.389 83.7391C160.695 83.2262 160.688 82.3137 161.216 81.8148C163.275 79.9248 163.776 77.1488 165.49 73.6869Z" fill="#67220D"/>
</g>
<defs>
<clipPath id="clip0_175_5384">
<rect width="301.499" height="226.434" fill="white" transform="translate(2.58496) rotate(0.654054)"/>
</clipPath>
</defs>
</svg>
