<svg width="221" height="288" viewBox="0 0 221 288" fill="none" xmlns="http://www.w3.org/2000/svg">
<path d="M220.749 127.358C220.749 151.999 205.816 171.018 189.697 188.271C170.299 209.036 141.7 215.153 109.783 215.153C80.7224 215.153 52.6817 208.557 33.5605 190.933C14.2306 173.12 0 146.059 0 118.765C0 82.2609 15.0746 47.7564 46.8618 30.7967C62.357 22.5301 81.6458 34.6609 100.402 30.7967C143.176 21.986 174.184 26.456 193.329 44.2479C212.477 62.0399 220.749 100.209 220.749 127.358Z" fill="#D82F27"/>
<path d="M182.898 108.616C182.898 127.658 171.359 142.356 158.901 155.69C143.909 171.738 121.809 176.464 97.1442 176.464C74.6852 176.464 53.0173 171.368 38.2397 157.746C23.3033 143.98 12.3047 123.068 12.3047 101.976C12.3047 73.7678 23.9532 47.1005 48.5178 33.9933C60.4928 27.6029 75.3998 36.9782 89.8921 33.9933C122.947 27.1853 146.909 30.6378 161.707 44.3891C176.508 58.1403 182.898 87.6337 182.898 108.616Z" fill="#E83627"/>
<path d="M71.006 46.3568C71.006 46.3568 44.8327 29.0031 28.123 63.5547C10.1517 100.712 16.8009 122.459 29.1347 133.27C29.1347 133.27 44.7004 139.86 45.5503 124.832C46.4031 109.805 33.4841 96.3594 42.7124 82.123C51.9407 67.8865 62.3541 80.0144 72.3705 74.2151C82.3839 68.4158 83.7485 57.2555 71.006 46.3568Z" fill="#F1663B"/>
<path d="M88.4037 28.7808C88.4037 28.7808 49.2116 0.201972 18.63 13.4533C-11.9515 26.7016 36.2043 2.44873 78.8138 39.3589C89.8418 48.9106 59.7543 34.583 38.6658 49.54C22.7971 60.7945 22.4972 82.5947 26.7143 87.8676C30.9314 93.1405 26.9437 61.612 52.3759 56.5656C52.3759 56.5656 86.998 53.3895 96.2263 55.3834C101.093 56.4362 134.366 65.935 123.379 111.126C120.247 124.016 154.228 75.0398 130.41 58.8182C126.861 56.4009 129.575 51.0192 129.575 51.0192C129.575 51.0192 155.14 48.4931 167.67 55.1363C175.075 59.0623 186.915 71.3167 189.024 78.9628C190.894 85.7385 189.885 44.1642 143.065 35.0094C103.94 27.3604 164.859 12.4916 183.489 19.0702C202.119 25.6488 142.576 -1.30667 117.756 20.8229C98.7731 37.7444 92.6297 30.854 88.4037 28.7808Z" fill="#78B639"/>
<path d="M99.2553 35.4591C99.2553 35.4591 88.4949 31.5037 79.2666 27.9453C70.0384 24.3869 97.0792 41.3907 87.7774 43.2346C78.4756 45.0814 65.3772 48.1104 62.3452 50.2219C59.3132 52.3305 90.8947 48.0575 107.007 55.0949C112.751 57.6034 120.923 59.0532 132.392 71.7075C135.586 75.2335 130.678 60.7677 122.902 51.5395C117.191 44.7668 139.38 45.9137 148.605 46.8341C157.833 47.7576 136.477 40.8613 129.096 33.4799C121.714 26.0985 125.537 23.5929 128.702 22.4077C131.866 21.2226 119.87 19.5081 115.521 28.0747C111.166 36.6442 106.257 35.5355 99.2553 35.4591Z" fill="#518D23"/>
<path d="M108.339 44.4218C93.2941 46.2451 98.5229 31.2793 98.6934 25.2271C98.911 17.3957 96.476 9.24966 94.9468 1.46533C94.9938 1.4771 95.0556 1.4771 95.1174 1.46533C97.473 3.34745 104.54 2.94162 107.754 1.46533C109.627 8.93794 111.083 17.3016 112.627 24.8212C113.615 29.6177 117.797 43.2807 108.339 44.4218Z" fill="#7EB341"/>
<path d="M107.757 1.46157C107.757 2.26735 104.89 2.92313 101.352 2.92313C97.8141 2.92313 94.9468 2.26735 94.9468 1.46157C94.9468 0.655784 97.8141 0 101.352 0C104.89 0 107.757 0.655784 107.757 1.46157Z" fill="#549606"/>
<path d="M35.275 282.225C34.675 282.225 34.2417 282.142 33.975 281.975C33.7083 281.792 33.5417 281.55 33.475 281.25C33.4083 280.95 33.375 280.642 33.375 280.325V266.65C33.375 266.317 33.4 266.008 33.45 265.725C33.5167 265.442 33.6833 265.208 33.95 265.025C34.2167 264.842 34.6583 264.75 35.275 264.75C35.9083 264.75 36.35 264.842 36.6 265.025C36.8667 265.208 37.025 265.442 37.075 265.725C37.1417 266.008 37.175 266.317 37.175 266.65V278.925H44.025C44.3083 278.925 44.575 278.95 44.825 279C45.075 279.05 45.275 279.192 45.425 279.425C45.5917 279.658 45.675 280.042 45.675 280.575C45.675 281.092 45.5917 281.475 45.425 281.725C45.2583 281.958 45.05 282.1 44.8 282.15C44.5667 282.2 44.3083 282.225 44.025 282.225H35.275ZM49.2857 282.225C48.6857 282.225 48.2524 282.142 47.9857 281.975C47.7191 281.792 47.5524 281.55 47.4857 281.25C47.4357 280.95 47.4107 280.642 47.4107 280.325V266.65C47.4107 265.917 47.5524 265.417 47.8357 265.15C48.1191 264.883 48.6274 264.75 49.3607 264.75H58.8107C59.1441 264.75 59.4524 264.783 59.7357 264.85C60.0191 264.9 60.2524 265.058 60.4357 265.325C60.6191 265.592 60.7107 266.042 60.7107 266.675C60.7107 267.275 60.6191 267.708 60.4357 267.975C60.2524 268.242 60.0107 268.408 59.7107 268.475C59.4274 268.525 59.1191 268.55 58.7857 268.55H51.2107V271.775H56.3607C56.6941 271.775 56.9857 271.8 57.2357 271.85C57.5024 271.9 57.7107 272.042 57.8607 272.275C58.0107 272.508 58.0857 272.9 58.0857 273.45C58.0857 273.967 58.0107 274.342 57.8607 274.575C57.7107 274.808 57.5024 274.95 57.2357 275C56.9691 275.05 56.6607 275.075 56.3107 275.075H51.2107V278.425H58.8107C59.1441 278.425 59.4524 278.458 59.7357 278.525C60.0191 278.592 60.2524 278.758 60.4357 279.025C60.6191 279.275 60.7107 279.717 60.7107 280.35C60.7107 280.95 60.6191 281.383 60.4357 281.65C60.2524 281.917 60.0107 282.075 59.7107 282.125C59.4274 282.192 59.1191 282.225 58.7857 282.225H49.2857ZM68.1695 282.475C67.2862 282.475 66.5112 282.367 65.8445 282.15C65.1945 281.933 64.6362 281.675 64.1695 281.375C63.7195 281.058 63.3612 280.75 63.0945 280.45C62.8279 280.15 62.6445 279.925 62.5445 279.775C62.2612 279.408 62.0862 279.092 62.0195 278.825C61.9529 278.542 61.9862 278.258 62.1195 277.975C62.2695 277.692 62.5195 277.383 62.8695 277.05C63.2195 276.75 63.5445 276.592 63.8445 276.575C64.1612 276.542 64.4695 276.617 64.7695 276.8C65.0695 276.983 65.3612 277.242 65.6445 277.575C66.0445 278.058 66.4362 278.4 66.8195 278.6C67.2195 278.783 67.6362 278.875 68.0695 278.875C68.6195 278.875 69.0862 278.808 69.4695 278.675C69.8529 278.542 70.1445 278.333 70.3445 278.05C70.5445 277.75 70.6445 277.375 70.6445 276.925C70.6445 276.558 70.5029 276.267 70.2195 276.05C69.9529 275.817 69.5862 275.617 69.1195 275.45C68.6695 275.283 68.1612 275.125 67.5945 274.975C67.0445 274.808 66.4945 274.617 65.9445 274.4C65.5612 274.267 65.1945 274.1 64.8445 273.9C64.4945 273.7 64.1612 273.475 63.8445 273.225C63.5279 272.975 63.2529 272.675 63.0195 272.325C62.8029 271.975 62.6279 271.575 62.4945 271.125C62.3779 270.675 62.3195 270.158 62.3195 269.575C62.3195 268.592 62.5612 267.717 63.0445 266.95C63.5279 266.183 64.1945 265.583 65.0445 265.15C65.9112 264.7 66.9029 264.475 68.0195 264.475C68.7695 264.475 69.4195 264.542 69.9695 264.675C70.5362 264.808 71.0112 264.967 71.3945 265.15C71.7779 265.333 72.0779 265.517 72.2945 265.7C72.5279 265.867 72.6862 266 72.7695 266.1C73.2362 266.533 73.4945 266.908 73.5445 267.225C73.5945 267.525 73.4195 267.95 73.0195 268.5C72.6029 269.083 72.1862 269.408 71.7695 269.475C71.3695 269.542 70.9112 269.4 70.3945 269.05C70.1945 268.867 69.9945 268.7 69.7945 268.55C69.5945 268.4 69.3529 268.283 69.0695 268.2C68.8029 268.1 68.4445 268.05 67.9945 268.05C67.7279 268.05 67.4779 268.092 67.2445 268.175C67.0112 268.242 66.8112 268.342 66.6445 268.475C66.4779 268.608 66.3445 268.775 66.2445 268.975C66.1445 269.158 66.0945 269.367 66.0945 269.6C66.0945 269.983 66.2195 270.292 66.4695 270.525C66.7362 270.758 67.0779 270.95 67.4945 271.1C67.9279 271.233 68.4029 271.367 68.9195 271.5C69.4529 271.617 69.9945 271.758 70.5445 271.925C71.0445 272.092 71.5279 272.3 71.9945 272.55C72.4612 272.783 72.8779 273.083 73.2445 273.45C73.6112 273.817 73.9029 274.275 74.1195 274.825C74.3529 275.375 74.4695 276.05 74.4695 276.85C74.4695 277.85 74.2779 278.708 73.8945 279.425C73.5112 280.142 73.0029 280.725 72.3695 281.175C71.7362 281.625 71.0529 281.95 70.3195 282.15C69.5862 282.367 68.8695 282.475 68.1695 282.475ZM95.1223 264.725C95.4056 264.725 95.6639 264.75 95.8973 264.8C96.1306 264.85 96.3223 264.992 96.4723 265.225C96.6389 265.442 96.7223 265.825 96.7223 266.375C96.7223 266.892 96.6389 267.267 96.4723 267.5C96.3223 267.733 96.1223 267.875 95.8723 267.925C95.6223 267.975 95.3556 268 95.0723 268H91.0473V280.375C91.0473 280.692 91.0139 280.992 90.9473 281.275C90.8973 281.558 90.7389 281.792 90.4723 281.975C90.2223 282.142 89.7889 282.225 89.1723 282.225C88.5723 282.225 88.1389 282.142 87.8723 281.975C87.6056 281.792 87.4473 281.558 87.3973 281.275C87.3473 280.975 87.3223 280.667 87.3223 280.35V268H83.2473C82.9806 268 82.7223 267.975 82.4723 267.925C82.2223 267.858 82.0223 267.717 81.8723 267.5C81.7223 267.267 81.6473 266.883 81.6473 266.35C81.6473 265.817 81.7223 265.442 81.8723 265.225C82.0223 264.992 82.2223 264.85 82.4723 264.8C82.7223 264.75 82.9806 264.725 83.2473 264.725H95.1223ZM104.969 282.475C103.769 282.475 102.636 282.25 101.569 281.8C100.519 281.333 99.5939 280.7 98.7939 279.9C98.0106 279.083 97.3856 278.142 96.9189 277.075C96.4689 276.008 96.2439 274.858 96.2439 273.625C96.2439 272.375 96.4606 271.208 96.8939 270.125C97.3439 269.025 97.9523 268.058 98.7189 267.225C99.5023 266.392 100.411 265.742 101.444 265.275C102.477 264.808 103.586 264.575 104.769 264.575C105.969 264.575 107.094 264.808 108.144 265.275C109.211 265.725 110.136 266.358 110.919 267.175C111.702 267.992 112.319 268.942 112.769 270.025C113.236 271.108 113.469 272.283 113.469 273.55C113.469 274.767 113.244 275.917 112.794 277C112.361 278.067 111.752 279.017 110.969 279.85C110.186 280.667 109.277 281.308 108.244 281.775C107.227 282.242 106.136 282.475 104.969 282.475ZM104.844 278.675C105.511 278.675 106.136 278.542 106.719 278.275C107.302 278.008 107.811 277.65 108.244 277.2C108.694 276.733 109.036 276.192 109.269 275.575C109.519 274.942 109.644 274.258 109.644 273.525C109.644 272.825 109.519 272.167 109.269 271.55C109.019 270.917 108.669 270.367 108.219 269.9C107.786 269.417 107.277 269.042 106.694 268.775C106.127 268.508 105.511 268.375 104.844 268.375C104.194 268.375 103.577 268.508 102.994 268.775C102.427 269.042 101.919 269.417 101.469 269.9C101.036 270.367 100.686 270.917 100.419 271.55C100.169 272.167 100.044 272.833 100.044 273.55C100.044 274.25 100.169 274.917 100.419 275.55C100.686 276.167 101.036 276.708 101.469 277.175C101.919 277.642 102.427 278.008 102.994 278.275C103.561 278.542 104.177 278.675 104.844 278.675ZM116.834 282.225C116.234 282.225 115.801 282.133 115.534 281.95C115.284 281.767 115.126 281.533 115.059 281.25C114.993 280.95 114.959 280.633 114.959 280.3V266.625C114.959 266.308 114.993 266.017 115.059 265.75C115.126 265.467 115.293 265.233 115.559 265.05C115.826 264.867 116.268 264.775 116.884 264.775C117.301 264.775 117.618 264.8 117.834 264.85C118.051 264.9 118.209 264.975 118.309 265.075C118.409 265.158 118.518 265.258 118.634 265.375L124.259 272.975H123.884L129.534 265.375C129.668 265.208 129.801 265.083 129.934 265C130.068 264.917 130.234 264.858 130.434 264.825C130.651 264.792 130.951 264.775 131.334 264.775C131.934 264.775 132.368 264.867 132.634 265.05C132.901 265.233 133.068 265.475 133.134 265.775C133.201 266.058 133.234 266.358 133.234 266.675V280.35C133.234 280.667 133.201 280.967 133.134 281.25C133.068 281.533 132.901 281.767 132.634 281.95C132.368 282.133 131.926 282.225 131.309 282.225C130.709 282.225 130.276 282.133 130.009 281.95C129.743 281.767 129.576 281.525 129.509 281.225C129.443 280.925 129.409 280.617 129.409 280.3V271.375L125.684 276.65C125.618 276.733 125.526 276.85 125.409 277C125.293 277.133 125.126 277.25 124.909 277.35C124.709 277.45 124.434 277.5 124.084 277.5C123.718 277.5 123.426 277.45 123.209 277.35C123.009 277.25 122.851 277.133 122.734 277C122.618 276.867 122.518 276.75 122.434 276.65L118.734 271.4V280.35C118.734 280.667 118.701 280.967 118.634 281.25C118.568 281.533 118.401 281.767 118.134 281.95C117.884 282.133 117.451 282.225 116.834 282.225ZM150.909 279.575C151.109 279.992 151.217 280.35 151.234 280.65C151.251 280.933 151.159 281.192 150.959 281.425C150.776 281.642 150.467 281.858 150.034 282.075C149.367 282.392 148.851 282.483 148.484 282.35C148.117 282.233 147.776 281.842 147.459 281.175L142.559 270.925L137.684 281.175C137.351 281.825 137.001 282.208 136.634 282.325C136.284 282.458 135.776 282.367 135.109 282.05C134.676 281.85 134.359 281.642 134.159 281.425C133.976 281.192 133.892 280.925 133.909 280.625C133.926 280.308 134.042 279.942 134.259 279.525L140.834 265.85C141.001 265.517 141.242 265.25 141.559 265.05C141.892 264.85 142.234 264.75 142.584 264.75C142.834 264.75 143.067 264.8 143.284 264.9C143.501 264.983 143.692 265.108 143.859 265.275C144.042 265.442 144.192 265.642 144.309 265.875L150.909 279.575ZM138.359 278.15L139.909 274.925H145.234L146.784 278.15H138.359ZM160.821 264.725C161.104 264.725 161.362 264.75 161.596 264.8C161.829 264.85 162.021 264.992 162.171 265.225C162.337 265.442 162.421 265.825 162.421 266.375C162.421 266.892 162.337 267.267 162.171 267.5C162.021 267.733 161.821 267.875 161.571 267.925C161.321 267.975 161.054 268 160.771 268H156.746V280.375C156.746 280.692 156.712 280.992 156.646 281.275C156.596 281.558 156.437 281.792 156.171 281.975C155.921 282.142 155.487 282.225 154.871 282.225C154.271 282.225 153.837 282.142 153.571 281.975C153.304 281.792 153.146 281.558 153.096 281.275C153.046 280.975 153.021 280.667 153.021 280.35V268H148.946C148.679 268 148.421 267.975 148.171 267.925C147.921 267.858 147.721 267.717 147.571 267.5C147.421 267.267 147.346 266.883 147.346 266.35C147.346 265.817 147.421 265.442 147.571 265.225C147.721 264.992 147.921 264.85 148.171 264.8C148.421 264.75 148.679 264.725 148.946 264.725H160.821ZM166.131 282.225C165.531 282.225 165.098 282.142 164.831 281.975C164.565 281.792 164.398 281.55 164.331 281.25C164.281 280.95 164.256 280.642 164.256 280.325V266.65C164.256 265.917 164.398 265.417 164.681 265.15C164.965 264.883 165.473 264.75 166.206 264.75H175.656C175.99 264.75 176.298 264.783 176.581 264.85C176.865 264.9 177.098 265.058 177.281 265.325C177.465 265.592 177.556 266.042 177.556 266.675C177.556 267.275 177.465 267.708 177.281 267.975C177.098 268.242 176.856 268.408 176.556 268.475C176.273 268.525 175.965 268.55 175.631 268.55H168.056V271.775H173.206C173.54 271.775 173.831 271.8 174.081 271.85C174.348 271.9 174.556 272.042 174.706 272.275C174.856 272.508 174.931 272.9 174.931 273.45C174.931 273.967 174.856 274.342 174.706 274.575C174.556 274.808 174.348 274.95 174.081 275C173.815 275.05 173.506 275.075 173.156 275.075H168.056V278.425H175.656C175.99 278.425 176.298 278.458 176.581 278.525C176.865 278.592 177.098 278.758 177.281 279.025C177.465 279.275 177.556 279.717 177.556 280.35C177.556 280.95 177.465 281.383 177.281 281.65C177.098 281.917 176.856 282.075 176.556 282.125C176.273 282.192 175.965 282.225 175.631 282.225H166.131ZM185.015 282.475C184.132 282.475 183.357 282.367 182.69 282.15C182.04 281.933 181.482 281.675 181.015 281.375C180.565 281.058 180.207 280.75 179.94 280.45C179.674 280.15 179.49 279.925 179.39 279.775C179.107 279.408 178.932 279.092 178.865 278.825C178.799 278.542 178.832 278.258 178.965 277.975C179.115 277.692 179.365 277.383 179.715 277.05C180.065 276.75 180.39 276.592 180.69 276.575C181.007 276.542 181.315 276.617 181.615 276.8C181.915 276.983 182.207 277.242 182.49 277.575C182.89 278.058 183.282 278.4 183.665 278.6C184.065 278.783 184.482 278.875 184.915 278.875C185.465 278.875 185.932 278.808 186.315 278.675C186.699 278.542 186.99 278.333 187.19 278.05C187.39 277.75 187.49 277.375 187.49 276.925C187.49 276.558 187.349 276.267 187.065 276.05C186.799 275.817 186.432 275.617 185.965 275.45C185.515 275.283 185.007 275.125 184.44 274.975C183.89 274.808 183.34 274.617 182.79 274.4C182.407 274.267 182.04 274.1 181.69 273.9C181.34 273.7 181.007 273.475 180.69 273.225C180.374 272.975 180.099 272.675 179.865 272.325C179.649 271.975 179.474 271.575 179.34 271.125C179.224 270.675 179.165 270.158 179.165 269.575C179.165 268.592 179.407 267.717 179.89 266.95C180.374 266.183 181.04 265.583 181.89 265.15C182.757 264.7 183.749 264.475 184.865 264.475C185.615 264.475 186.265 264.542 186.815 264.675C187.382 264.808 187.857 264.967 188.24 265.15C188.624 265.333 188.924 265.517 189.14 265.7C189.374 265.867 189.532 266 189.615 266.1C190.082 266.533 190.34 266.908 190.39 267.225C190.44 267.525 190.265 267.95 189.865 268.5C189.449 269.083 189.032 269.408 188.615 269.475C188.215 269.542 187.757 269.4 187.24 269.05C187.04 268.867 186.84 268.7 186.64 268.55C186.44 268.4 186.199 268.283 185.915 268.2C185.649 268.1 185.29 268.05 184.84 268.05C184.574 268.05 184.324 268.092 184.09 268.175C183.857 268.242 183.657 268.342 183.49 268.475C183.324 268.608 183.19 268.775 183.09 268.975C182.99 269.158 182.94 269.367 182.94 269.6C182.94 269.983 183.065 270.292 183.315 270.525C183.582 270.758 183.924 270.95 184.34 271.1C184.774 271.233 185.249 271.367 185.765 271.5C186.299 271.617 186.84 271.758 187.39 271.925C187.89 272.092 188.374 272.3 188.84 272.55C189.307 272.783 189.724 273.083 190.09 273.45C190.457 273.817 190.749 274.275 190.965 274.825C191.199 275.375 191.315 276.05 191.315 276.85C191.315 277.85 191.124 278.708 190.74 279.425C190.357 280.142 189.849 280.725 189.215 281.175C188.582 281.625 187.899 281.95 187.165 282.15C186.432 282.367 185.715 282.475 185.015 282.475Z" fill="#1C551B"/>
</svg>
